<svg class="svg-icon" viewBox="0 0 20 20" fill="none" xmlns="http://www.w3.org/2000/svg">
<path fill-rule="evenodd" clip-rule="evenodd" d="M15.7704 17.5845C14.2254 18.4867 12.5913 17.2775 11.3813 15.9556C12.4843 14.4613 13.5374 12.6468 13.5944 10.7916C13.6424 9.02806 12.6903 7.67655 11.2843 7.16315C10.5413 6.88801 9.71335 6.86219 8.95235 7.08649C7.55135 7.49921 6.54735 8.71411 6.42735 10.2852C6.26235 12.27 7.43036 14.3576 8.62636 15.9547C7.92036 16.7372 6.96335 17.5935 5.92735 17.8248C4.12635 18.2495 2.59135 16.5439 3.19635 14.6837C3.50735 13.7366 8.31635 3.06793 9.13335 2.42194C9.62635 2.02119 10.4083 2.01192 10.9203 2.46052C11.6713 3.1085 16.5923 13.8751 16.8533 14.8311C17.1593 15.9616 16.6674 17.0701 15.7704 17.5845ZM10.0023 14.231C9.58435 13.6249 9.21636 13.0277 8.91936 12.3438C8.48436 11.326 8.19835 9.98713 9.11735 9.37604C9.70235 8.98426 10.5293 9.03404 11.0453 9.4986C11.6963 10.0748 11.5334 11.1406 11.2384 11.961C10.9234 12.8183 10.4493 13.593 10.0023 14.231ZM12.4164 0.971259C11.0654 -0.368571 8.82935 -0.285825 7.56435 0.995185C6.41935 2.12267 1.25035 13.2861 1.05035 14.7764C0.629353 17.6335 2.90836 20.1616 5.64136 19.9742C7.38136 19.8795 8.80736 18.8028 10.0034 17.5357C12.0484 19.7139 14.6734 20.8625 17.0414 19.2286C18.2634 18.3922 19.0273 16.9378 19.0023 15.3726C18.9793 13.3011 13.3664 1.88342 12.4164 0.971259Z" fill="currentColor"/>
</svg>
