<svg class="svg-icon" viewBox="0 0 20 20" fill="none" xmlns="http://www.w3.org/2000/svg">
<path fill-rule="evenodd" clip-rule="evenodd" d="M7.56435 0.995185C8.82935 -0.285825 11.0654 -0.368571 12.4164 0.971259C13.3664 1.88342 18.9793 13.3011 19.0023 15.3726C19.0273 16.9378 18.2634 18.3922 17.0414 19.2286C14.6734 20.8625 12.0484 19.7139 10.0034 17.5357C8.80736 18.8028 7.38136 19.8795 5.64136 19.9742C2.90836 20.1616 0.629353 17.6335 1.05035 14.7764C1.25035 13.2861 6.41935 2.12267 7.56435 0.995185ZM8.91936 12.3438C9.21636 13.0277 9.58435 13.6249 10.0023 14.231C10.4493 13.593 10.9234 12.8183 11.2384 11.961C11.5334 11.1406 11.6963 10.0748 11.0453 9.4986C10.5293 9.03404 9.70235 8.98426 9.11735 9.37604C8.19835 9.98713 8.48436 11.326 8.91936 12.3438Z" fill="currentColor"/>
</svg>
