<svg fill="currentColor" class="svg-icon" viewBox="0 0 32 32" xmlns="http://www.w3.org/2000/svg"><path d="M18.988 21.273c-1.203.055-1.081-.574-.377-1.542 1.649-2.209 4.774-5.293 4.881-7.475.189-2.853-2.678-3.781-5.625-3.754a18.306 18.306 0 0 0-5.75 1.174l.126-.042c-4.242 1.38-7.731 4.094-10.058 7.639l-.044.072C.045 20.442.735 23.402 5.156 23.498a17.407 17.407 0 0 0 7.983-2.297l-.085.045c.012 0-6.356 1.816-8.695.479l-.01-.003a1.023 1.023 0 0 1-.571-.85v-.003c-.015-1.106 1.824-2.252 2.853-2.62v-1.916a6.635 6.635 0 0 0 2.442.457 6.725 6.725 0 0 0 4.35-1.589l-.01.008a1.57 1.57 0 0 1 .055.564v-.006h.464a1.376 1.376 0 0 0-.218-.887l.003.005a1.417 1.417 0 0 0-1.141-.65h-.002a1.7 1.7 0 0 1 .657.576l.004.006a6.154 6.154 0 0 1-3.978 1.448 6.21 6.21 0 0 1-1.895-.295l.044.012 1.512-1.5-.42-1.092c2.766-1.061 6.047-1.965 9.434-2.558l.328-.047-.932-.78.486-.3c2.512.71 4.155 1.231 4.065 2.563a3.328 3.328 0 0 1-.261.784l.009-.02a33.096 33.096 0 0 1-3.801 4.888l.016-.017a18.547 18.547 0 0 0-1.516 1.892l-.04.06a3.427 3.427 0 0 0-.687 1.761l-.001.014c.054 4.379 12.914-2.049 15.401-3.753-3.496 1.72-7.56 2.923-11.848 3.383l-.16.014z"/></svg>