<svg class="svg-icon" viewBox="0 0 24 24" xmlns="http://www.w3.org/2000/svg"><path d="M20.413 15.094c-.26-.333-1.727-.157-2.385-.08-.2.025-.232-.15-.05-.275 1.167-.822 3.084-.585 3.308-.31.223.278-.059 2.2-1.156 3.117-.168.14-.33.065-.254-.121.246-.616.799-1.995.537-2.33" fill-rule="evenodd"/><path d="M19.586 16.069c-2.052 1.512-5.027 2.32-7.589 2.32-3.591 0-6.824-1.329-9.27-3.538-.193-.174-.02-.41.21-.275 2.64 1.536 5.904 2.46 9.276 2.46 2.274 0 4.775-.47 7.075-1.447.347-.148.638.228.298.48" fill-rule="evenodd"/><path d="M20.028 10.531c-.893 0-1.34.345-1.34 1.035 0 .6.316.9.948.9.242 0 .504-.048.785-.144a3.89 3.89 0 0 0 .852-.421v-1.198a4.86 4.86 0 0 0-1.245-.172zm.135-2.634c1.104 0 1.656.475 1.656 1.427v3.391c0 .096-.048.144-.144.144h-.2c-.097 0-.148-.048-.154-.144l-.038-.412c-.55.44-1.124.661-1.724.661-.44 0-.79-.126-1.048-.378-.259-.252-.388-.59-.388-1.01 0-.467.158-.834.474-1.102.316-.269.752-.403 1.307-.403a4.85 4.85 0 0 1 1.37.22v-.804c0-.39-.093-.67-.279-.838-.185-.17-.491-.254-.919-.254a4.505 4.505 0 0 0-1.421.244.298.298 0 0 1-.101.024c-.077 0-.115-.042-.115-.125v-.153c0-.096.041-.16.125-.191a4.514 4.514 0 0 1 1.599-.297zm-4.651 2.835-1.388 2.021a.237.237 0 0 1-.201.106h-.269c-.083 0-.124-.035-.124-.106 0-.025.022-.067.067-.124l1.637-2.28-1.493-2.088c-.039-.058-.058-.096-.058-.115 0-.07.042-.106.125-.106h.296c.083 0 .15.035.202.106l1.254 1.782 1.254-1.782a.229.229 0 0 1 .192-.106h.258c.083 0 .125.035.125.106 0 .025-.02.067-.058.124l-1.474 2.04 1.637 2.32c.038.056.057.098.057.123 0 .07-.041.106-.124.106h-.297a.229.229 0 0 1-.191-.106zM11.09 8.385c-.479 0-.857.14-1.135.422-.277.28-.445.693-.502 1.235.249.064.496.112.742.144.245.032.493.048.742.048.479 0 .83-.07 1.053-.21.223-.141.335-.365.335-.671 0-.645-.412-.968-1.235-.968zm1.216 3.957c.083-.026.144-.047.182-.063a.278.278 0 0 1 .105-.024c.077 0 .115.042.115.125v.134c0 .102-.035.17-.105.201a3.77 3.77 0 0 1-1.465.288c-.734 0-1.294-.213-1.68-.637-.387-.425-.58-1.046-.58-1.864 0-.402.051-.765.153-1.087a2.31 2.31 0 0 1 .446-.824c.194-.227.432-.399.713-.517.28-.118.597-.177.948-.177.555 0 .984.127 1.288.383.303.255.455.613.455 1.073 0 .453-.162.787-.484 1-.322.215-.822.322-1.499.322-.242 0-.486-.015-.732-.043a4.505 4.505 0 0 1-.733-.149c0 .69.146 1.2.436 1.528.29.33.726.493 1.307.493.377 0 .753-.054 1.13-.162zM7.092 5.914c0-.096.047-.144.143-.144h.259c.095 0 .143.048.143.144v6.111c0 .141.027.24.082.297.054.058.151.087.292.087a.992.992 0 0 0 .13-.01.922.922 0 0 1 .119-.01c.089 0 .134.045.134.135v.182c0 .076-.042.124-.125.143a.778.778 0 0 1-.167.029c-.074.006-.14.01-.197.01-.255 0-.455-.075-.598-.226-.144-.15-.215-.359-.215-.627zM4.037 10.53c-.894 0-1.34.345-1.34 1.035 0 .6.316.9.948.9.242 0 .504-.048.785-.144a3.89 3.89 0 0 0 .852-.421v-1.198a4.86 4.86 0 0 0-1.245-.172zm.134-2.634c1.105 0 1.657.475 1.657 1.427v3.391c0 .096-.048.144-.144.144h-.201c-.096 0-.147-.048-.153-.144l-.038-.412c-.55.44-1.124.661-1.724.661-.44 0-.79-.126-1.048-.378-.259-.252-.388-.59-.388-1.01 0-.467.158-.834.474-1.102.316-.269.751-.403 1.307-.403a4.849 4.849 0 0 1 1.37.22l-.001-.804c0-.39-.093-.67-.278-.838-.185-.17-.491-.254-.92-.254a4.505 4.505 0 0 0-1.42.244.3.3 0 0 1-.101.024c-.077 0-.115-.042-.115-.125v-.153c0-.096.041-.16.124-.191a4.514 4.514 0 0 1 1.599-.297" fill-rule="evenodd" stroke="#000" stroke-width=".307"/></svg>