<svg class="svg-icon" viewBox="0 0 512 512" fill="none" xmlns="http://www.w3.org/2000/svg"><path d="M77 200.383c0-7.569 1.692-14.023 4.026-18.297 2.498-4.573 4.638-4.999 5.068-4.999.43 0 2.57.426 5.067 4.999 2.335 4.274 4.026 10.727 4.026 18.297v122.316c0 7.558-1.69 14.014-4.027 18.294-2.5 4.581-4.642 5.006-5.066 5.006-.424 0-2.566-.424-5.067-5.006-2.336-4.28-4.027-10.736-4.027-18.294V200.383Zm338.814-.064c0-7.567 1.695-14.026 4.035-18.308 2.506-4.586 4.65-5.011 5.07-5.011.423 0 2.561.422 5.059 5.004 2.333 4.281 4.022 10.742 4.022 18.315v122.358c0 7.574-1.689 14.036-4.023 18.318-2.498 4.583-4.636 5.005-5.058 5.005-.419 0-2.563-.424-5.07-5.012-2.34-4.284-4.035-10.744-4.035-18.311V200.319Z" stroke="currentColor" stroke-width="16"/><path d="M377.966 135.264H134.039c6.655-28.822 27.268-53.823 56.373-69.352l10.714-5.717.11.16 8.315-2.875c14.41-4.983 30.03-7.837 46.449-7.837 16.442 0 32.061 2.855 46.467 7.843l8.316 2.88.113-.166 10.716 5.714c29.101 15.518 49.703 40.517 56.354 69.35ZM132.105 389.663l.001-209.163h247.788v209.163c0 6.763-5.484 12.237-12.221 12.237H329.05v78.703c0 10.887-8.633 19.397-18.915 19.397-10.324 0-18.938-8.511-18.938-19.397V401.9H220.826v78.703c0 10.874-8.647 19.397-18.941 19.397-10.288 0-18.937-8.522-18.937-19.397V401.9H144.349c-6.753 0-12.244-5.488-12.244-12.237Z" stroke="currentColor" stroke-width="23"/><path d="M198.896 79.362c8.27 0 14.969 6.71 14.969 14.983 0 8.269-6.7 14.976-14.969 14.976-8.269 0-14.99-6.707-14.99-14.976 0-8.273 6.699-14.983 14.99-14.983ZM315.002 79.362c8.268 0 14.99 6.71 14.99 14.983 0 8.269-6.721 14.976-14.99 14.976-8.291 0-14.97-6.707-14.97-14.976 0-8.273 6.679-14.983 14.97-14.983Z" fill="currentColor"/></svg>