<svg class="svg-icon" viewBox="0 0 32 32" xmlns="http://www.w3.org/2000/svg"><path d="M27.5 12a2.5 2.5 0 0 0-2.5 2.5V13a1 1 0 0 0-1-1H8a1 1 0 0 0-1 1v1.5a2.5 2.5 0 0 0-5 0v6a2.5 2.5 0 0 0 5 0V24a1 1 0 0 0 1 1h2v4.5a2.5 2.5 0 0 0 5 0V25h2v4.5a2.5 2.5 0 0 0 5 0V25h2a1 1 0 0 0 1-1v-3.5a2.5 2.5 0 0 0 5 0v-6a2.5 2.5 0 0 0-2.5-2.5ZM5 20.5a.5.5 0 0 1-1 0v-6a.5.5 0 0 1 1 0Zm8 9a.5.5 0 0 1-1 0V25h1Zm6.5.5a.51.51 0 0 1-.5-.5V25h1v4.5a.51.51 0 0 1-.5.5Zm3.5-7H9v-9h14Zm5-2.5a.5.5 0 0 1-1 0v-6a.5.5 0 0 1 1 0ZM7.08 9.88a1 1 0 0 0 .24.78 1 1 0 0 0 .75.34h15.86a1 1 0 0 0 .75-.34 1 1 0 0 0 .24-.78A9 9 0 0 0 21.65 4l2.18-2.18a1 1 0 0 0-1.41-1.4l-2.49 2.49A9 9 0 0 0 16 2a8.87 8.87 0 0 0-4.42 1.18L8.82.42a1 1 0 0 0-1.42 0 1 1 0 0 0 0 1.41l2.54 2.54a8.94 8.94 0 0 0-2.86 5.51ZM22.7 9H9.3a7 7 0 0 1 13.4 0Z"/></svg>