<svg class="svg-icon" viewBox="0 0 800 800" fill="none" xmlns="http://www.w3.org/2000/svg">
<path fill-rule="evenodd" clip-rule="evenodd" d="M792 608.25V191.75C792 90.271 709.729 8 608.25 8H191.75C90.271 8 8 90.271 8 191.75V608.25C8 709.729 90.271 792 191.75 792H608.25C709.729 792 792 709.729 792 608.25ZM232.199 176.94C280.402 149.134 338.214 133 400.705 133C567.751 133 703 248.651 703 391.647C703 534.643 567.769 650.757 400.722 650.757C359.4 650.721 318.418 643.282 279.726 628.794C251.274 651.537 216.167 666 177.199 666C155.14 665.938 133.31 661.525 112.964 653.013C153.338 652.568 185.117 618.951 185.117 577.694C185.117 576.273 184.939 574.212 184.69 572.311C131.345 525.653 98 462.115 98 391.665C98 320.185 132.146 255.617 186.879 208.763C187.009 208.652 187.177 208.589 187.343 208.527C187.497 208.469 187.649 208.412 187.769 208.318C194.459 202.579 201.149 196.911 208.445 191.723C216.007 186.375 224.032 181.649 232.199 176.94Z" fill="currentColor"/>
</svg>
