<svg class="svg-icon" viewBox="0 0 800 800" fill="none" xmlns="http://www.w3.org/2000/svg">
<path d="M781 191.75V608.25C781 703.654 703.654 781 608.25 781H191.75C96.3461 781 19 703.654 19 608.25V191.75C19 96.3461 96.3461 19 191.75 19H608.25C703.654 19 781 96.3461 781 191.75Z" stroke="currentColor" stroke-width="22"/>
<path d="M237.693 186.47L237.696 186.469C284.199 159.642 340.11 144 400.705 144C563.349 144 692 256.275 692 391.647C692 527.041 563.344 639.752 400.732 639.757C360.723 639.723 321.045 632.519 283.583 618.493L277.735 616.303L272.858 620.202C246.083 641.604 213.346 654.998 177.209 655C169.176 654.976 161.177 654.335 153.279 653.091C179.071 638.251 196.117 609.857 196.117 577.694C196.117 575.589 195.874 572.996 195.597 570.882L195.058 566.765L191.932 564.031C140.589 519.124 109 458.463 109 391.665C109 324.31 140.94 263.014 193.002 218.006C193.049 217.98 193.096 217.953 193.144 217.925C193.557 217.688 194.044 217.377 194.559 216.972L194.748 216.824L194.931 216.667C201.626 210.924 207.971 205.558 214.809 200.695C221.911 195.673 229.539 191.171 237.693 186.47ZM191.188 218.833C191.177 218.837 191.176 218.837 191.187 218.833L191.188 218.833Z" stroke="currentColor" stroke-width="22"/>
</svg>

