<svg class="svg-icon" viewBox="0 0 24 24" fill="none" xmlns="http://www.w3.org/2000/svg"><path fill="#fff" d="M0 0h24v24H0z"/><path fill-rule="evenodd" clip-rule="evenodd" d="M12.293 14.293a1 1 0 0 0 1.414 1.414l2.913-2.913.044-.046a.998.998 0 0 0 0-1.496 1.112 1.112 0 0 0-.044-.046l-2.913-2.913a1 1 0 1 0-1.414 1.414L13.586 11H8a1 1 0 1 0 0 2h5.586l-1.293 1.293ZM7.25 2.388C8.55 2.099 10.124 2 12 2s3.451.1 4.75.388c1.31.291 2.399.788 3.236 1.626.838.837 1.335 1.926 1.626 3.236C21.901 8.55 22 10.124 22 12s-.1 3.451-.388 4.75c-.291 1.31-.788 2.399-1.626 3.236-.837.838-1.926 1.335-3.236 1.626-1.299.289-2.874.388-4.75.388s-3.451-.1-4.75-.388c-1.31-.291-2.399-.788-3.236-1.626-.838-.837-1.335-1.926-1.626-3.236C2.099 15.45 2 13.876 2 12s.1-3.451.388-4.75c.291-1.31.788-2.399 1.626-3.236.837-.838 1.926-1.335 3.236-1.626Z" fill="#323232"/></svg>