<svg class="svg-icon" viewBox="0 0 1792 1792" fill="none" xmlns="http://www.w3.org/2000/svg"><path d="M1582 1363.5c0 52.41-43.12 94.5-95.91 94.5H95.907C42.716 1458 0 1415.51 0 1363.5c0-52.41 43.122-94.5 95.906-94.5H1485.99c52.89-.4 96.01 42.09 96.01 94.5ZM1314 895.502c0 52.41-35.8 94.498-79.61 94.498H80.614C36.46 990 1 947.511 1 895.502c0-52.41 35.797-94.498 79.614-94.498H1234.39c43.81-.501 79.61 41.988 79.61 94.498ZM1792 428.001c0 52.133-48.85 93.999-108.64 93.999H108.637C48.386 522 0 479.736 0 428.001c0-52.132 48.846-93.998 108.637-93.998H1683.25c59.9-.399 108.75 41.866 108.75 93.998Z" fill="currentColor"/></svg>