<svg fill="currentColor" xmlns="http://www.w3.org/2000/svg" class="svg-icon" viewBox="0 0 512 512" xml:space="preserve"><path d="m509.023 212.71-4.267-8.883-7.173-5.626c-9.382-7.348-56.853.511-69.652-11.091-9.044-8.371-10.416-23.404-13.161-43.714-5.114-39.436-8.358-41.494-14.496-54.805-22.37-47.47-82.977-83.15-124.632-88.09h-112.86C74 .5 1.441 73.232 1.441 162.009v188.307C1.441 438.93 74 511.5 162.782 511.5h185.419c88.776 0 160.822-72.57 161.334-161.185l1.023-130.433-1.535-7.172zm-344.195-80.243h89.463c17.072 0 30.908 13.835 30.908 30.74 0 16.892-13.836 30.89-30.908 30.89h-89.463c-17.067 0-30.901-13.998-30.901-30.89-.001-16.905 13.834-30.74 30.901-30.74zM346.654 378.66H164.828c-17.067 0-30.901-13.998-30.901-30.728 0-16.904 13.834-30.728 30.901-30.728h181.827c16.917 0 30.74 13.823 30.74 30.728 0 16.73-13.824 30.728-30.741 30.728z" fill-rule="evenodd" clip-rule="evenodd"/></svg>