<svg class="svg-icon" xmlns="http://www.w3.org/2000/svg" viewBox="0 0 512 512" xml:space="preserve" fill="currentColor"><path d="M464 32H48C21.492 32 0 53.492 0 80v352c0 26.508 21.492 48 48 48h416c26.508 0 48-21.492 48-48V80c0-26.508-21.492-48-48-48zm-19.336 35c10.492 0 19 8.508 19 19s-8.508 19-19 19-19-8.508-19-19 8.508-19 19-19zm-70.5 0c10.492 0 19 8.508 19 19s-8.508 19-19 19-19-8.508-19-19 8.508-19 19-19zm-70.5 0c10.492 0 19 8.508 19 19s-8.508 19-19 19-19-8.508-19-19 8.508-19 19-19zM472 432c0 4.406-3.586 8-8 8H48c-4.414 0-8-3.594-8-8V136h432v296z"/><path d="M97.477 326.656h16.031c.977 0 1.625-.633 1.93-1.562l13.774-44h.336l13.43 44c.328.93.984 1.562 1.945 1.562h16.188c.984 0 1.633-.633 1.938-1.562l25.117-72.656c.313-.93-.187-1.562-1.305-1.562h-19.913c-1.149 0-1.79.484-2.102 1.562l-12.313 45.094h-.312l-13.766-45.094c-.336-1.078-.977-1.562-2.11-1.562h-13.602c-1.14 0-1.954.484-2.258 1.562l-13.454 45.094h-.328l-12.946-45.094c-.328-1.078-.953-1.562-2.266-1.562H71.586c-.992 0-1.454.633-1.157 1.562l25.118 72.656c.32.929.969 1.562 1.93 1.562zm126.601 0h16.054c.961 0 1.618-.633 1.93-1.562l13.766-44h.328l13.43 44c.336.93.984 1.562 1.953 1.562h16.18c.984 0 1.625-.633 1.953-1.562l25.102-72.656c.313-.93-.172-1.562-1.297-1.562H293.57c-1.156 0-1.805.484-2.117 1.562l-12.313 45.094h-.32l-13.758-45.094c-.336-1.078-.976-1.562-2.102-1.562h-13.609c-1.133 0-1.946.484-2.258 1.562l-13.445 45.094h-.321l-12.961-45.094c-.313-1.078-.969-1.562-2.258-1.562h-19.914c-.992 0-1.469.633-1.133 1.562l25.094 72.656c.322.929.97 1.562 1.923 1.562zm126.797 0h16.047c.953 0 1.601-.633 1.922-1.562l13.766-44h.336l13.429 44c.328.93.969 1.562 1.938 1.562h16.195c.977 0 1.625-.633 1.946-1.562l25.117-72.656c.297-.93-.187-1.562-1.296-1.562h-19.938c-1.133 0-1.782.484-2.094 1.562l-12.304 45.094h-.32l-13.766-45.094c-.336-1.078-.977-1.562-2.102-1.562h-13.618c-1.133 0-1.938.484-2.25 1.562l-13.462 45.094h-.304l-12.954-45.094c-.336-1.078-.961-1.562-2.266-1.562h-19.922c-.969 0-1.454.633-1.141 1.562l25.118 72.656c.306.929.954 1.562 1.923 1.562z"/></svg>