<svg class="svg-icon" viewBox="0 0 800 800" fill="none" xmlns="http://www.w3.org/2000/svg"><path d="M800 221c0 26.4-21.627 48-48.06 48H47.06C20.627 269-1 247.4-1 221v-.4C-1 129 73.093 55 164.807 55h468.986C725.507 55 800 129.4 800 221ZM-1 356.154v222.714C-1 670.762 73.093 745 164.807 745h468.986C725.507 745 800 670.361 800 578.466V356.154C800 329.669 778.373 308 751.94 308H47.06C20.627 308-1 329.669-1 356.154Zm240.3 254.415h-80.1c-16.42 0-30.037-13.643-30.037-30.096s13.617-30.097 30.037-30.097h80.1c16.421 0 30.037 13.644 30.037 30.097 0 16.453-13.616 30.096-30.037 30.096Zm260.325 0h-160.2c-16.421 0-30.038-13.643-30.038-30.096s13.617-30.097 30.038-30.097h160.2c16.421 0 30.038 13.644 30.038 30.097 0 16.453-13.617 30.096-30.038 30.096Z" fill="currentColor"/></svg>