<svg class="svg-icon" viewBox="0 0 297 297" fill="none" xmlns="http://www.w3.org/2000/svg">
<path d="M132.123 73.8005C140.364 68.6122 149.9 65.861 159.633 65.8634C166.938 65.8641 174.16 67.4297 180.823 70.4312C187.486 73.4327 193.438 77.8153 198.287 83.2901C203.136 88.7648 206.772 95.2073 208.955 102.193C211.138 109.178 211.818 116.548 210.951 123.816C210.762 125.427 210.97 127.06 211.556 128.572C212.142 130.085 213.088 131.43 214.313 132.491C215.537 133.552 217.003 134.296 218.58 134.659C220.158 135.022 221.801 134.992 223.364 134.572C228.777 133.123 234.435 132.847 239.962 133.765C245.489 134.682 250.757 136.77 255.414 139.891C260.071 143.011 264.009 147.092 266.967 151.86C269.924 156.628 271.831 161.973 272.562 167.539C273.292 173.104 272.829 178.762 271.202 184.134C269.576 189.506 266.824 194.468 263.131 198.689C259.437 202.91 254.888 206.292 249.785 208.61C244.683 210.928 239.146 212.128 233.543 212.13H184.6V231.999H233.543C241.445 232.034 249.274 230.483 256.568 227.438C263.863 224.393 270.475 219.916 276.015 214.269C281.555 208.623 285.911 201.923 288.825 194.563C291.74 187.204 293.155 179.334 292.987 171.417C292.818 163.501 291.069 155.699 287.844 148.47C284.618 141.242 279.981 134.734 274.206 129.33C268.431 123.925 261.634 119.735 254.217 117.004C246.799 114.274 238.912 113.059 231.018 113.431C230.127 98.3353 224.493 83.9089 214.923 72.2165C205.352 60.524 192.335 52.165 177.736 48.3357C163.136 44.5064 147.702 45.403 133.641 50.8974C119.581 56.3917 107.616 66.202 99.4578 78.9244C88.7848 76.1057 77.6348 75.599 66.751 77.4379C55.8672 79.2769 45.4996 83.4194 36.3392 89.5891C27.1788 95.7589 19.436 103.814 13.6269 113.218C7.81779 122.623 4.07582 133.159 2.65039 144.127C1.22496 155.094 2.14882 166.24 5.36038 176.821C8.57194 187.402 13.9974 197.176 21.2752 205.491C28.5531 213.806 37.516 220.471 47.5667 225.042C57.6174 229.613 68.525 231.985 79.5624 231.999H111.826V212.13H79.5624C71.0714 212.117 62.6875 210.231 55.0059 206.605C47.3244 202.979 40.5338 197.703 35.1164 191.152C29.699 184.6 25.7877 176.934 23.6603 168.697C21.5329 160.46 21.2416 151.855 22.8071 143.493C24.3725 135.13 27.7563 127.216 32.7182 120.311C37.6801 113.407 44.0982 107.682 51.5169 103.543C58.9355 99.4044 67.1727 96.9531 75.6433 96.3635C84.1139 95.7739 92.6101 97.0605 100.529 100.132C102.853 101.037 105.432 101.031 107.752 100.115C110.073 99.1992 111.963 97.4411 113.047 95.1909C117.269 86.4034 123.881 78.9889 132.123 73.8005Z" fill="currentColor"/>
<path d="M149 153V247" stroke="currentColor" stroke-width="24" stroke-linecap="round"/>
<path d="M196 169L160.078 133.531C153.96 127.49 144.04 127.49 137.922 133.531L102 169" stroke="currentColor" stroke-width="24" stroke-linecap="round"/>
</svg>
