<svg version="1.1" id="_x32_" xmlns="http://www.w3.org/2000/svg" viewBox="0 0 512 512" xml:space="preserve"><style>.st0{fill:#000}</style><path d="M141.312 0h32.771v71.683h-32.771zm65.541 0h32.761v71.683h-32.761zm65.532 0h32.761v71.683h-32.761zm65.532 0h32.77v71.683h-32.77zM141.312 440.326h32.771V512h-32.771zm65.541 0h32.761V512h-32.761zm65.532 0h32.761V512h-32.761zm65.532 0h32.77V512h-32.77zm102.404-299.019h71.674v32.771h-71.674zm0 65.542h71.674v32.77h-71.674zm0 65.541h71.674v32.761h-71.674zm0 65.532h71.674v32.77h-71.674zM.005 141.307h71.674v32.771H.005zm0 65.542h71.674v32.77H.005zm0 65.541h71.674v32.761H.005zm0 65.532h71.674v32.77H.005zm255.241-85.713c6.171 0 9.862-3.586 9.862-9.06 0-5.485-3.69-9.176-9.862-9.176h-11.16c-.4 0-.6.21-.6.61v17.025c0 .4.2.601.6.601h11.16z"/><path d="M92.165 419.84h327.67V92.17H92.165v327.67zm275.194-289.272c8.479 0 15.356 6.867 15.356 15.356 0 8.488-6.876 15.355-15.356 15.355-8.479 0-15.356-6.867-15.356-15.355.001-8.49 6.877-15.356 15.356-15.356zm0 222.719c8.479 0 15.356 6.867 15.356 15.356 0 8.488-6.876 15.355-15.356 15.355-8.479 0-15.356-6.867-15.356-15.355.001-8.489 6.877-15.356 15.356-15.356zm-76.538-130.969c0-.591.4-.991 1.001-.991h12.648c.6 0 1.001.4 1.001.991v42.242c0 8.069 4.483 12.648 11.35 12.648 6.772 0 11.264-4.578 11.264-12.648v-42.242c0-.591.4-.991.992-.991h12.646c.601 0 .992.4.992.991v41.851c0 16.825-10.749 25.99-25.895 25.99-15.232 0-25.999-9.165-25.999-25.99v-41.851zm-61.975 0c0-.591.4-.991 1.001-.991h26.295c14.745 0 23.605 8.87 23.605 21.822 0 12.741-8.966 21.707-23.605 21.707h-12.056c-.4 0-.6.2-.6.6v22.614c0 .591-.391.991-.991.991h-12.648c-.601 0-1.001-.4-1.001-.991v-65.752zm-61.173 14.554c3.586-11.063 12.256-16.633 24.112-16.633 11.454 0 19.819 5.57 23.605 15.03.295.496.095.992-.496 1.202l-10.863 4.874c-.592.296-1.097.104-1.393-.486-1.889-4.387-5.084-7.678-10.759-7.678-5.274 0-8.66 2.795-10.157 7.468-.801 2.499-1.097 4.883-1.097 14.554 0 9.652.296 12.046 1.097 14.535 1.497 4.673 4.883 7.468 10.157 7.468 5.675 0 8.87-3.291 10.759-7.669.296-.6.801-.791 1.393-.496l10.863 4.874c.591.21.791.706.496 1.202-3.786 9.461-12.152 15.04-23.605 15.04-11.856 0-20.525-5.58-24.112-16.643-1.487-4.368-1.888-7.859-1.888-18.312 0-10.47.401-13.942 1.888-18.33zM144.64 130.568c8.489 0 15.365 6.876 15.365 15.356 0 8.478-6.876 15.355-15.365 15.355-8.488 0-15.355-6.876-15.355-15.355 0-8.48 6.867-15.356 15.355-15.356zm0 222.719c8.489 0 15.365 6.876 15.365 15.356 0 8.478-6.876 15.355-15.365 15.355-8.488 0-15.355-6.877-15.355-15.355 0-8.48 6.867-15.356 15.355-15.356z"/></svg>