<svg class="svg-icon" xmlns="http://www.w3.org/2000/svg" viewBox="0 0 512 512" xml:space="preserve"><style/><path d="M256.002 0C141.984 0 56 49.392 56 114.894v282.211C56 462.608 141.984 512 256.002 512S456 462.608 456 397.106V114.894C456 49.392 370.02 0 256.002 0zm131.08 202.952c.703-.343 1.338-.73 2.033-1.079 4.238-2.091 8.4-4.241 12.34-6.551v60.211c0 25.777-55.334 61.73-145.453 61.73-90.117 0-145.457-35.953-145.457-61.73v-60.34c35.916 21.522 86.938 34.597 145.457 34.597 50.553 0 95.455-9.792 129.91-26.323.381-.179.791-.334 1.17-.515zM110.545 335.83c35.916 21.524 86.938 34.598 145.457 34.598 50.736 0 95.797-9.853 130.301-26.494.238-.113.498-.211.736-.324.855-.418 1.627-.886 2.469-1.312 4.094-2.03 8.133-4.105 11.947-6.342v61.15c0 25.777-55.334 61.73-145.453 61.73-90.117 0-145.457-35.953-145.457-61.73V335.83zm145.457-159.205c-90.117 0-145.457-35.953-145.457-61.731 0-25.777 55.34-61.73 145.457-61.73 90.119 0 145.453 35.953 145.453 61.73 0 25.778-55.334 61.731-145.453 61.731z"/></svg>