<svg class="svg-icon" xmlns="http://www.w3.org/2000/svg" viewBox="0 0 512 512" xml:space="preserve" fill="currentColor"><path d="M455.925 324.816v-.305c-43.168 34.714-115.123 56.648-200 56.648-74.15 0-138.432-16.743-182.279-44.12-6.223-3.94-12.07-8.112-17.48-12.524v.178c-.076-.062-.162-.119-.24-.182v92.043c0 52.626 89.717 95.445 200 95.445s200-42.819 200-95.445v-56.488l.15-35.363c-.05.039-.102.074-.151.113z"/><path d="M255.925 340.831c110.283 0 200-42.82 200-95.444v-60.192l.15-10.437c-.049.039-.102.074-.15.113v-.301c-43.168 34.714-115.123 56.648-200 56.648-74.117 0-138.375-16.73-182.221-44.087-6.244-3.952-12.111-8.137-17.539-12.562v.182c-.076-.062-.162-.119-.24-.182v70.817c0 52.626 89.717 95.445 200 95.445z"/><path d="M255.925 190.89c110.283 0 200-42.819 200-95.444 0-1.507-.328-2.974-.472-4.463-.836-8.539-3.844-16.81-9.098-24.622C420.507 27.918 344.952 0 255.925 0S91.343 27.918 65.497 66.36c-5.256 7.812-8.264 16.083-9.098 24.622-.147 1.488-.475 2.956-.475 4.463.001 52.625 89.718 95.445 200.001 95.445z"/></svg>