<svg fill="currentColor" xmlns="http://www.w3.org/2000/svg" class="svg-icon" viewBox="0 0 512 512" xml:space="preserve"><path d="M152.526 112.084v31.281h44.932s5.74.141 5.74-6.339c0-5.939.023-31.27.023-31.27h-44.955c0 .001-5.74-.163-5.74 6.328zm.012 64.91v169.059h44.92s5.728.152 5.728-6.304l.024-169.07h-44.92s-5.752-.152-5.752 6.315zm-65.99-64.91v58.595H6.251S.5 170.527.5 177.005v169.047h130.98s5.74.164 5.74-6.327l.035-233.968H92.276s-5.728-.164-5.728 6.327zm.024 189.987c0 6.491-5.752 6.35-5.752 6.35H50.162v-93.832c0-6.479 5.751-6.338 5.751-6.338h30.659v93.82zm134.056-125.066v169.047h86.026v22.571h-80.298s-5.728-.141-5.728 6.339v31.28h130.969s5.74.142 5.74-6.338l.022-229.121-131.004-.105c.001.001-5.727-.151-5.727 6.327zm49.65 37.584c0-6.479 5.751-6.338 5.751-6.338H306.7v93.82c0 6.491-5.751 6.35-5.751 6.35h-30.671v-93.832zm110.218-43.91s-5.729-.152-5.729 6.326v169.047h86.025v22.571h-80.297s-5.729-.141-5.729 6.339v31.28h130.969s5.74.142 5.74-6.338l.023-229.121-131.002-.104zm80.344 131.392c0 6.491-5.752 6.35-5.752 6.35h-30.682v-93.832c0-6.479 5.764-6.338 5.764-6.338h30.67v93.82z"/></svg>