<svg class="svg-icon" viewBox="0 0 24 24" fill="none" xmlns="http://www.w3.org/2000/svg">
<path d="M19.6361 4.42627C18.212 3.75997 16.6893 3.27573 15.0973 3C14.9018 3.35348 14.6734 3.82891 14.5159 4.20712C12.8236 3.95262 11.1469 3.95262 9.48573 4.20712C9.32828 3.82891 9.09467 3.35348 8.89741 3C7.30374 3.27573 5.77928 3.76175 4.35518 4.4298C1.48276 8.7704 0.70409 13.0032 1.09342 17.1759C2.99856 18.5986 4.84487 19.4628 6.66003 20.0284C7.1082 19.4116 7.50791 18.7559 7.85224 18.0649C7.19644 17.8157 6.56832 17.5082 5.97482 17.1512C6.13227 17.0345 6.28628 16.9125 6.43508 16.7871C10.055 18.4802 13.9882 18.4802 17.5648 16.7871C17.7154 16.9125 17.8694 17.0345 18.0251 17.1512C17.4299 17.5099 16.8 17.8174 16.1442 18.0666C16.4885 18.7559 16.8865 19.4134 17.3364 20.0301C19.1533 19.4646 21.0014 18.6004 22.9065 17.1759C23.3633 12.3387 22.1261 8.14476 19.6361 4.42627ZM8.34541 14.6097C7.25874 14.6097 6.36759 13.5952 6.36759 12.3599C6.36759 11.1245 7.23972 10.1083 8.34541 10.1083C9.45114 10.1083 10.3423 11.1227 10.3232 12.3599C10.325 13.5952 9.45114 14.6097 8.34541 14.6097ZM15.6545 14.6097C14.5678 14.6097 13.6767 13.5952 13.6767 12.3599C13.6767 11.1245 14.5488 10.1083 15.6545 10.1083C16.7602 10.1083 17.6514 11.1227 17.6323 12.3599C17.6323 13.5952 16.7602 14.6097 15.6545 14.6097Z" fill="currentColor"/>
</svg>
