<svg class="svg-icon" viewBox="0 0 24 24" fill="none" xmlns="http://www.w3.org/2000/svg"><path d="M12 22.5c5.799 0 10.5-4.701 10.5-10.5S17.799 1.5 12 1.5 1.5 6.201 1.5 12 6.201 22.5 12 22.5Z" stroke="currentColor" stroke-width="1.91" stroke-miterlimit="10"/><path d="M8.12 2.24a32.468 32.468 0 0 1 4.68 6.89 33.231 33.231 0 0 1 1.58 3.56 36.161 36.161 0 0 1 2.15 8.79" stroke="currentColor" stroke-width="1.91" stroke-miterlimit="10"/><path d="M19.67 4.82a18.16 18.16 0 0 1-6.87 4.31A28 28 0 0 1 1.55 11m20.87 2.21c-2.585-.822-5.331-1-8-.52a13 13 0 0 0-9.33 7.21" stroke="currentColor" stroke-width="1.91" stroke-miterlimit="10"/></svg>