<svg class="svg-icon" xmlns="http://www.w3.org/2000/svg" viewBox="0 0 512 512" xml:space="preserve"><style/><path d="M511.576 385.989 442.451 76.22a66.013 66.013 0 0 0-23.201-37.214 66.098 66.098 0 0 0-41.384-14.548H134.137a66.092 66.092 0 0 0-41.384 14.548A66.022 66.022 0 0 0 69.545 76.22L.419 385.989c-.491 1.936-.415 8.212-.415 12.382v28.774a60.297 60.297 0 0 0 17.694 42.703 60.314 60.314 0 0 0 42.72 17.694h391.174c16.62.009 31.827-6.792 42.704-17.694a60.23 60.23 0 0 0 17.694-42.703v-28.774c.009-4.17.085-10.446-.414-12.382zM60.419 453.025c-7.206 0-13.566-2.876-18.312-7.586-4.711-4.737-7.578-11.097-7.586-18.294v-28.774c.008-7.19 2.875-13.558 7.586-18.294 4.745-4.712 11.106-7.587 18.312-7.587h391.174c7.207 0 13.566 2.875 18.312 7.587 4.702 4.737 7.569 11.105 7.569 18.294v28.774c0 7.197-2.868 13.558-7.569 18.294-4.746 4.71-11.105 7.586-18.312 7.586H60.419zm53.927-387.098a31.552 31.552 0 0 1 19.791-6.952h243.729a31.594 31.594 0 0 1 19.8 6.952 31.59 31.59 0 0 1 11.105 17.813l57.124 256.01c-4.602-1.116-9.38-1.776-14.303-1.776H60.419c-4.939 0-9.71.659-14.31 1.776L103.24 83.74c1.616-7.266 5.608-13.407 11.106-17.813z"/><circle cx="415.072" cy="412.766" r="17.322"/></svg>