<svg fill="currentColor" xmlns="http://www.w3.org/2000/svg" class="svg-icon" viewBox="0 0 512 512" xml:space="preserve"><path d="m412.522 205.267 98.978-82.479-150.81-96.355-103.676 86.94-101.344-86.94L.5 127.507l106.858 81.29L.5 290.099l106.32 62.975 48.851 28.931 101.344-77.759 101.311 77.759 49.522-29.716 103.652-62.19-98.978-84.832zm-155.193-87.389L403.7 201.971 255.995 299.85l-146.787-92.477 148.121-89.495zm105.379 278.424 45.14-27.082v24.627l-152.2 98.721-148.828-99.394V369.96l44.513 26.375 4.955 2.926 4.573-3.497 96.153-73.78 96.12 73.78 4.607 3.52 4.967-2.982z"/></svg>