<svg fill="currentColor" xmlns="http://www.w3.org/2000/svg" class="svg-icon" viewBox="0 0 512 512" xml:space="preserve"><path d="M460.46 93.056c0-32.737-48.543-36.405-48.543-36.405l-114.063-7.286s-2.433-31.538-25.5-42.467c-23.056-10.929-70.961-4.591-89.151-4.391-18.214.187-22.481 23.803-22.481 46.06 0 22.245.399 32.362.399 48.531 0 16.181-8.321 23.853-21.333 23.878H75.164c-18.09-1.21-32.162 1.822-32.162 16.692 0 14.858 21.258 171.54 50.489 200.77 16.954 16.954 120.626 28.882 142.471 28.882 21.833 0 14.559-65.522 20.622-65.522 6.076 0 12.75 37.002 47.121 45.71 34.396 8.684 80.306 7.074 82.738 31.951 3.193 32.811 6.063 75.24-15.171 78.271l-48.08 1.946c-32.948-2.396-24.128-38.986-9.569-38.986 14.571 0 21.845-.574 21.845-.574l1.821-40.046s-75.478-9.082-78.671 42.666c-2.932 47.308 5.053 69.589 10.916 74.43 5.864 4.866 15.97 14.334 108.413 14.334 130.244 0 82.513-385.683 82.513-418.444zm-63.314 157.367c-3.244 3.032-17.342-8.907-28.507-8.907-11.166 0-20.822 9.107-23.642 5.664-2.832-3.431 2.607-31.139 23.642-31.139 21.034 0 31.738 31.338 28.507 34.382zM131.99 109.648H59.182l89.8-89.4s-1.609 69.988-1.609 76.451c0 6.475-2.034 12.949-15.383 12.949z"/></svg>