<svg class="svg-icon" xmlns="http://www.w3.org/2000/svg" viewBox="0 0 512 512" xml:space="preserve"><style/><path d="M378.409 0h-183.29l-9.315 9.314L57.016 138.102l-9.314 9.314v278.689c0 47.361 38.528 85.896 85.896 85.896h244.811c47.36 0 85.888-38.535 85.888-85.896V85.895C464.298 38.528 425.769 0 378.409 0zm54.085 426.104c0 29.877-24.215 54.092-54.084 54.092H133.598c-29.877 0-54.092-24.215-54.092-54.092V160.591h83.717c24.885 0 45.07-20.179 45.07-45.07V31.804h170.116c29.87 0 54.084 24.214 54.084 54.091v340.209z"/><path d="M176.829 253.762v53.82c0 11.179 9.06 20.235 20.238 20.235h37.676v-94.288h-37.676c-11.179-.001-20.238 9.068-20.238 20.233zm151.619-57.987a6.85 6.85 0 0 0-6.706-.272l-74.874 38.025v94.288l74.874 38.032a6.855 6.855 0 0 0 6.706-.272 6.868 6.868 0 0 0 3.278-5.858V201.632a6.86 6.86 0 0 0-3.278-5.857z"/></svg>