<svg class="svg-icon" xmlns="http://www.w3.org/2000/svg" viewBox="0 0 512 512" xml:space="preserve"><style/><path d="M378.413 0H195.129l-9.314 9.314L57.02 138.102l-9.314 9.314v278.69c0 47.36 38.527 85.895 85.895 85.895h244.812c47.353 0 85.881-38.535 85.881-85.895V85.896C464.294 38.528 425.766 0 378.413 0zm54.084 426.105c0 29.877-24.214 54.091-54.084 54.091H133.601c-29.87 0-54.084-24.214-54.084-54.091V160.591h83.717c24.884 0 45.063-20.178 45.063-45.07V31.804h170.116c29.87 0 54.084 24.214 54.084 54.092v340.209z"/><path d="M162.94 251.968c-5.851 0-10.054 4.21-10.054 10.592v72.804c0 6.388 4.203 10.599 10.054 10.599 5.698 0 9.915-4.21 9.915-10.599V262.56c0-6.382-4.217-10.592-9.915-10.592zm102.681 0c-5.977 0-9.244 3.261-12.219 10.326l-19.299 44.547h-.545l-19.69-44.547c-3.114-7.066-6.382-10.326-12.358-10.326-6.647 0-11.004 4.622-11.004 11.954v72.398c0 6.109 3.812 9.643 9.245 9.643 5.153 0 8.965-3.534 8.965-9.643v-44.554h.67l14.398 33.138c2.848 6.522 5.167 8.428 9.775 8.428 4.622 0 6.926-1.906 9.789-8.428l14.258-33.138h.684v44.554c0 6.109 3.658 9.643 9.091 9.643 5.432 0 9.105-3.534 9.105-9.643v-72.398c0-7.332-4.217-11.954-10.865-11.954zm90.742 41.838h-19.02c-5.153 0-8.42 3.121-8.42 7.876 0 4.755 3.268 7.876 8.42 7.876h6.256c.545 0 .81.272.81.816 0 3.533-.266 6.654-1.089 9.098-1.9 5.844-7.737 9.51-14.803 9.51-8.015 0-13.043-3.938-15.068-10.187-1.089-3.393-1.494-7.876-1.494-19.83 0-11.953.406-16.296 1.494-19.696 2.025-6.382 6.927-10.32 14.802-10.32 5.977 0 10.459 1.899 13.993 6.786 2.709 3.805 5.432 4.895 8.825 4.895 5.028 0 9.091-3.666 9.091-8.965 0-2.171-.67-4.078-1.76-5.977-4.888-8.287-15.207-14.397-30.149-14.397-16.436 0-29.199 7.471-33.962 22.412-2.038 6.515-2.583 11.682-2.583 25.262 0 13.581.545 18.74 2.583 25.262 4.762 14.942 17.526 22.413 33.962 22.413 16.436 0 28.921-8.288 33.683-23.09 1.634-5.16 2.304-12.77 2.304-20.919v-.95c0-5.027-2.848-7.875-7.875-7.875z"/></svg>