<svg class="svg-icon" xmlns="http://www.w3.org/2000/svg" viewBox="0 0 512 512" xml:space="preserve"><style/><path d="M378.409 0h-183.29l-9.315 9.314L57.016 138.102l-9.314 9.314v278.689c0 47.361 38.528 85.896 85.896 85.896h244.811c47.36 0 85.888-38.535 85.888-85.896V85.895C464.298 38.528 425.769 0 378.409 0zm54.084 426.104c0 29.877-24.214 54.092-54.084 54.092H133.598c-29.877 0-54.092-24.215-54.092-54.092V160.591h83.717c24.885 0 45.07-20.179 45.07-45.07V31.804h170.116c29.87 0 54.084 24.214 54.084 54.091v340.209z"/><path d="M326.573 212.783h-13.434v13.957H198.868v-13.957h-43.681v158.56h43.681v-13.958h114.271v13.958h43.681v-158.56h-30.247zM185.434 357.756h-13.448v-21.149h13.448v21.149zm0-36.238h-13.448v-21.149h13.448v21.149zm0-36.245h-13.448V264.13h13.448v21.143zm0-36.238h-13.448v-21.149h13.448v21.149zm127.705 92.877H198.868v-99.699h114.271v99.699zm26.882 15.844h-13.448v-21.149h13.448v21.149zm0-36.238h-13.448v-21.149h13.448v21.149zm0-36.245h-13.448V264.13h13.448v21.143zm0-36.238h-13.448v-21.149h13.448v21.149z"/></svg>