<svg class="svg-icon" xmlns="http://www.w3.org/2000/svg" viewBox="0 0 512 512" xml:space="preserve"><style/><path d="M378.412 0H195.115l-9.314 9.314L57.02 138.102l-9.315 9.314v278.69c0 47.36 38.528 85.895 85.896 85.895h244.811c47.354 0 85.882-38.535 85.882-85.895V85.896C464.294 38.528 425.766 0 378.412 0zm54.085 426.105c0 29.877-24.214 54.091-54.084 54.091H133.601c-29.884 0-54.098-24.214-54.098-54.091V160.591h83.717c24.885 0 45.078-20.178 45.078-45.07V31.804h170.115c29.87 0 54.084 24.214 54.084 54.092v340.209z"/><path d="M159.582 272.188c-8.56 0-14.125 3.393-17.114 7.604h-.139c-.95-3.533-3.798-6.927-9.098-6.927-5.572 0-9.51 3.806-9.51 10.055v71.715c0 6.249 3.938 10.047 9.51 10.047 5.432 0 9.509-3.798 9.509-10.047v-20.787h.133c2.583 3.806 8.148 7.066 16.708 7.066 10.732 0 19.424-6.382 22.818-16.708 1.627-4.888 2.312-10.319 2.312-17.658 0-7.331-.685-12.764-2.312-17.658-3.392-10.32-12.085-16.702-22.817-16.702zm4.616 45.092c-1.627 5.027-5.16 7.61-10.187 7.61-5.02 0-8.42-2.584-10.048-7.61-.816-2.444-1.222-6.11-1.222-10.732 0-4.615.406-8.281 1.222-10.725 1.627-5.027 5.028-7.611 10.048-7.611 5.027 0 8.56 2.584 10.187 7.611.817 2.444 1.222 6.11 1.222 10.725-.001 4.622-.405 8.288-1.222 10.732zm70.234-45.092c-8.561 0-14.125 3.393-17.114 7.604h-.139c-.95-3.533-3.799-6.927-9.098-6.927-5.572 0-9.51 3.806-9.51 10.055v71.715c0 6.249 3.938 10.047 9.51 10.047 5.432 0 9.51-3.798 9.51-10.047v-20.787h.132c2.584 3.806 8.148 7.066 16.709 7.066 10.731 0 19.424-6.382 22.818-16.708 1.627-4.888 2.311-10.319 2.311-17.658 0-7.331-.684-12.764-2.311-17.658-3.394-10.32-12.087-16.702-22.818-16.702zm4.616 45.092c-1.628 5.027-5.16 7.61-10.187 7.61-5.021 0-8.421-2.584-10.048-7.61-.817-2.444-1.222-6.11-1.222-10.732 0-4.615.405-8.281 1.222-10.725 1.626-5.027 5.027-7.611 10.048-7.611 5.027 0 8.56 2.584 10.187 7.611.816 2.444 1.222 6.11 1.222 10.725-.001 4.622-.406 8.288-1.222 10.732zm58.147-29.472h5.16c4.887 0 7.603-2.856 7.603-7.066s-2.716-7.059-7.603-7.059h-5.16c-.545 0-.817-.272-.817-.817v-9.782c0-6.249-3.938-10.048-9.37-10.048-5.572 0-9.51 3.799-9.51 10.048v9.782c0 .545-.412.817-.95.817h-.545c-4.888 0-7.61 2.849-7.61 7.059s2.722 7.066 7.61 7.066h.545c.538 0 .95.272.95.817v29.605c0 14.942 5.565 22.008 21.051 22.008h.817c7.198 0 10.46-3.533 10.46-8.148 0-4.078-2.444-7.744-8.421-8.428-3.533-.405-5.027-2.031-5.027-5.97v-29.067c0-.545.272-.817.817-.817zm63.978 17.658 13.853-18.07c1.494-2.032 2.312-4.211 2.312-6.243 0-4.482-3.534-8.288-8.421-8.288-2.856 0-5.704 1.355-7.882 4.211l-10.725 14.125h-.14l-10.732-14.125c-2.172-2.856-5.021-4.211-7.876-4.211-4.888 0-8.42 3.806-8.42 8.288 0 2.032.817 4.211 2.311 6.243l13.853 18.07-15.488 20.234c-1.494 2.039-2.304 4.21-2.304 6.249 0 4.483 3.526 8.288 8.421 8.288 2.848 0 5.704-1.361 7.875-4.21l12.359-16.303h.14l12.358 16.303c2.172 2.849 5.027 4.21 7.876 4.21 4.888 0 8.42-3.805 8.42-8.288 0-2.038-.81-4.21-2.305-6.249l-15.485-20.234z"/></svg>