<svg class="svg-icon" viewBox="0 0 24 24" fill="none" xmlns="http://www.w3.org/2000/svg"><path d="M14.281 13.164a.75.75 0 0 1 .938 1.172l-2.494 1.995a.747.747 0 0 1-.473.169h-.008a.747.747 0 0 1-.465-.166l-2.497-1.998a.75.75 0 0 1 .937-1.172L11.5 14.19v-3.44a.75.75 0 1 1 1.5 0v3.44l1.281-1.026Z" fill="currentColor"/><path fill-rule="evenodd" clip-rule="evenodd" d="M6.194 0C4.43 0 3 1.515 3 3.385v17.23C3 22.485 4.43 24 6.194 24h11.613C19.57 24 21 22.485 21 20.615V7.32c0-.45-.133-.89-.381-1.255l-3.5-5.167A1.999 1.999 0 0 0 15.47 0H6.194ZM4.742 3.385c0-.85.65-1.539 1.452-1.539h8.419v5.412c0 .51.39.923.87.923h3.775v12.434c0 .85-.65 1.539-1.451 1.539H6.194c-.802 0-1.452-.689-1.452-1.539V3.385Z" fill="currentColor"/></svg>