<svg class="svg-icon" xmlns="http://www.w3.org/2000/svg" viewBox="0 0 512 512" xml:space="preserve"><style/><path d="M378.406 0H195.114L185.8 9.314 57.013 138.102l-9.314 9.314v278.69c0 47.36 38.528 85.895 85.895 85.895h244.812c47.368 0 85.895-38.535 85.895-85.895V85.896C464.301 38.528 425.773 0 378.406 0zm54.084 426.105c0 29.877-24.214 54.091-54.084 54.091H133.594c-29.877 0-54.091-24.214-54.091-54.091V160.591h83.717c24.884 0 45.07-20.178 45.07-45.07V31.804h170.115c29.87 0 54.084 24.214 54.084 54.092v340.209z"/><path d="m178.002 297.743 21.051-30.701c1.361-2.032 2.032-4.07 2.032-6.109 0-5.027-3.938-8.965-9.37-8.965-3.394 0-6.11 1.494-8.281 4.754l-16.575 24.452h-.265l-16.576-24.452c-2.172-3.26-4.888-4.754-8.281-4.754-5.432 0-9.37 3.938-9.37 8.965 0 2.039.67 4.077 2.031 6.109l20.919 30.701-22.546 33.138c-1.355 2.039-2.039 4.077-2.039 6.116 0 5.027 3.938 8.965 9.371 8.965 3.393 0 6.116-1.494 8.288-4.755l18.203-26.896h.265l18.203 26.896c2.171 3.261 4.894 4.755 8.287 4.755 5.432 0 9.37-3.938 9.37-8.965 0-2.039-.677-4.078-2.039-6.116l-22.678-33.138zm113.014-45.775c-5.977 0-9.238 3.261-12.226 10.326l-19.284 44.547h-.545l-19.697-44.547c-3.121-7.066-6.382-10.326-12.358-10.326-6.654 0-11.004 4.622-11.004 11.954v72.398c0 6.109 3.806 9.643 9.244 9.643 5.153 0 8.958-3.534 8.958-9.643v-44.554h.678l14.397 33.138c2.856 6.522 5.167 8.428 9.782 8.428s6.927-1.906 9.782-8.428L283 291.766h.684v44.554c0 6.109 3.666 9.643 9.098 9.643s9.098-3.534 9.098-9.643v-72.398c0-7.332-4.21-11.954-10.864-11.954zm82.195 75.387h-32.873c-.544 0-.824-.272-.824-.816V262.56c0-6.381-4.203-10.592-9.915-10.592-5.837 0-10.04 4.21-10.04 10.592v72.532c0 5.976 3.938 10.054 10.04 10.054h43.611c6.102 0 10.04-3.666 10.04-8.965.001-5.161-3.937-8.826-10.039-8.826z"/></svg>