<svg version="1.1" id="_x32_" xmlns="http://www.w3.org/2000/svg" viewBox="0 0 512 512" xml:space="preserve"><style>.st0{fill:#000}</style><path d="M378.41 0H195.118l-9.314 9.314L57.017 138.102l-9.315 9.314v278.689c0 47.361 38.528 85.896 85.896 85.896H378.41c47.36 0 85.888-38.535 85.888-85.896V85.895C464.298 38.528 425.77 0 378.41 0zm54.084 426.104c0 29.877-24.214 54.092-54.084 54.092H133.598c-29.877 0-54.091-24.215-54.091-54.092V160.591h83.717c24.884 0 45.07-20.179 45.07-45.07V31.804H378.41c29.87 0 54.084 24.214 54.084 54.091v340.209z"/><path d="M277.446 93.17h89.373v89.373h-89.373zM145.175 232.592h221.644v25.024H145.175zm0 71.498h221.644v25.024H145.175zm0 71.498h221.644v25.024H145.175z"/></svg>