<svg class="svg-icon" xmlns="http://www.w3.org/2000/svg" viewBox="0 0 512 512" xml:space="preserve"><style/><path d="M378.412 0H195.115l-9.314 9.314L57.02 138.102l-9.315 9.314v278.69c0 47.36 38.528 85.895 85.896 85.895h244.811c47.354 0 85.882-38.535 85.882-85.895V85.895C464.294 38.528 425.766 0 378.412 0zm54.085 426.105c0 29.877-24.214 54.091-54.084 54.091H133.601c-29.884 0-54.098-24.214-54.098-54.091V160.591h83.717c24.885 0 45.078-20.179 45.078-45.07V31.804h170.115c29.87 0 54.084 24.214 54.084 54.091v340.21z"/><path d="M197.349 281.44c0-16.841-12.498-28.656-31.518-28.656h-29.339c-5.432 0-8.686 3.534-8.686 8.826v73.754c0 6.388 4.203 10.599 10.04 10.599 5.851 0 9.915-4.21 9.915-10.599v-24.585c0-.538.279-.81.824-.81h13.574l15.486 29.744c2.318 4.344 5.711 6.25 9.789 6.25 5.976 0 9.496-4.35 9.496-9.51 0-1.899-.405-3.805-1.354-5.572l-13.448-24.445c9.51-4.755 15.221-13.72 15.221-24.996zm-32.467 11.548h-16.296c-.545 0-.824-.272-.824-.817v-21.324c0-.545.279-.816.824-.816h16.296c7.611 0 12.499 4.482 12.499 11.548-.001 6.927-4.888 11.409-12.499 11.409zm99.301-29.339c-2.583-7.331-6.786-11.681-13.853-11.681-7.066 0-11.144 4.35-13.727 11.681l-24.983 69.138a11.179 11.179 0 0 0-.684 3.798c0 5.705 4.622 9.378 9.65 9.378 4.343 0 7.876-2.584 9.37-7.066l3.658-11.27h33.012l3.798 11.27c1.494 4.482 5.028 7.066 9.37 7.066 5.027 0 9.649-3.673 9.649-9.378 0-1.354-.265-2.716-.684-3.798l-24.576-69.138zm-24.857 46.997 10.724-32.328h.419l10.585 32.328h-21.728zm135.707-29.206c0-16.841-12.498-28.656-31.518-28.656h-29.34c-5.432 0-8.686 3.534-8.686 8.826v73.754c0 6.388 4.203 10.599 10.04 10.599 5.851 0 9.915-4.21 9.915-10.599v-24.585c0-.538.279-.81.824-.81h13.573l15.487 29.744c2.318 4.344 5.712 6.25 9.789 6.25 5.977 0 9.496-4.35 9.496-9.51 0-1.899-.405-3.805-1.355-5.572l-13.447-24.445c9.511-4.755 15.222-13.72 15.222-24.996zm-32.467 11.548h-16.297c-.545 0-.824-.272-.824-.817v-21.324c0-.545.279-.816.824-.816h16.297c7.61 0 12.498 4.482 12.498 11.548 0 6.927-4.888 11.409-12.498 11.409z"/></svg>