<svg class="svg-icon" xmlns="http://www.w3.org/2000/svg" viewBox="0 0 512 512" xml:space="preserve"><style/><path d="M378.413 0H195.114L185.8 9.314 57.02 138.102l-9.314 9.314v278.69c0 47.36 38.527 85.895 85.895 85.895h244.812c47.353 0 85.881-38.535 85.881-85.895V85.896C464.294 38.528 425.766 0 378.413 0zm54.084 426.105c0 29.877-24.214 54.091-54.084 54.091H133.601c-29.884 0-54.098-24.214-54.098-54.091V160.591h83.717c24.885 0 45.077-20.178 45.077-45.07V31.804h170.116c29.87 0 54.084 24.214 54.084 54.092v340.209z"/><path d="m171.193 302.61 13.853-18.07c1.494-2.032 2.318-4.211 2.318-6.243 0-4.482-3.533-8.288-8.421-8.288-2.863 0-5.712 1.355-7.89 4.211l-10.725 14.125h-.139l-10.725-14.125c-2.178-2.856-5.027-4.211-7.876-4.211-4.888 0-8.42 3.806-8.42 8.288 0 2.032.81 4.211 2.304 6.243l13.853 18.07-15.487 20.235c-1.494 2.038-2.304 4.21-2.304 6.249 0 4.483 3.533 8.288 8.42 8.288 2.848 0 5.711-1.361 7.876-4.21l12.358-16.304h.139l12.358 16.304c2.179 2.849 5.027 4.21 7.876 4.21 4.888 0 8.42-3.805 8.42-8.288 0-2.039-.81-4.21-2.304-6.249l-15.484-20.235zm55.705 18.196c-2.989-.538-4.344-2.172-4.344-5.97v-61.394c0-6.25-4.078-10.055-9.509-10.055-5.572 0-9.51 3.805-9.51 10.055v63.021c0 13.448 5.166 20.919 20.235 20.919h.824c6.926 0 9.914-3.673 9.914-8.288 0-4.211-2.178-7.332-7.61-8.288zm51.082-25.262-7.206-.817c-7.471-.81-9.091-2.444-9.091-5.432 0-3.121 2.444-5.16 8.281-5.16 4.748 0 9.23.95 13.308 2.856 2.583 1.222 4.078 1.627 5.432 1.627 4.482 0 7.471-3.261 7.471-7.471 0-3.261-1.899-5.565-5.572-7.471-5.558-2.849-12.624-4.343-19.97-4.343-17.246 0-27.161 8.281-27.161 21.184 0 11.409 7.192 18.475 21.464 20.102l7.191.817c7.75.816 9.51 2.444 9.51 5.572 0 3.666-3.254 6.11-10.18 6.11-6.382 0-11.409-2.039-16.171-4.756-2.165-1.222-3.799-1.766-5.572-1.766-4.344 0-7.876 3.4-7.876 7.61 0 3.121 1.355 5.565 4.622 7.604 5.432 3.394 13.727 6.249 24.047 6.249 18.6 0 29.339-9.098 29.339-22.546.002-11.004-6.379-18.203-21.866-19.969zm73.076 7.066 13.853-18.07c1.494-2.032 2.318-4.211 2.318-6.243 0-4.482-3.533-8.288-8.42-8.288-2.862 0-5.712 1.355-7.89 4.211l-10.725 14.125h-.14l-10.725-14.125c-2.178-2.856-5.027-4.211-7.876-4.211-4.888 0-8.421 3.806-8.421 8.288 0 2.032.81 4.211 2.304 6.243l13.852 18.07-15.486 20.235c-1.494 2.038-2.304 4.21-2.304 6.249 0 4.483 3.534 8.288 8.42 8.288 2.849 0 5.712-1.361 7.876-4.21l12.358-16.304h.14l12.358 16.304c2.179 2.849 5.027 4.21 7.876 4.21 4.888 0 8.421-3.805 8.421-8.288 0-2.039-.81-4.21-2.304-6.249l-15.485-20.235z"/></svg>