<svg class="svg-icon" xmlns="http://www.w3.org/2000/svg" viewBox="0 0 512 512" xml:space="preserve"><style/><path d="M378.409 0H195.118l-9.314 9.314L57.016 138.102l-9.314 9.314v278.69c0 47.36 38.528 85.895 85.895 85.895h244.811c47.36 0 85.889-38.535 85.889-85.895V85.896C464.298 38.528 425.769 0 378.409 0zm54.084 426.105c0 29.877-24.214 54.091-54.084 54.091H133.598c-29.877 0-54.091-24.214-54.091-54.091V160.591h83.717c24.885 0 45.07-20.178 45.07-45.07V31.804h170.115c29.87 0 54.084 24.214 54.084 54.092v340.209z"/><path d="M207.466 276.147c4.755-6.926 5.841-9.782 5.841-13.853 0-5.166-3.534-9.509-10.46-9.509h-43.464c-5.977 0-9.506 3.805-9.506 8.965 0 5.159 3.529 8.825 9.506 8.825h29.339v.272l-33.958 50.119c-4.615 6.661-6.382 9.915-6.382 14.669 0 5.167 3.666 9.51 10.46 9.51h44.959c6.109 0 9.506-3.666 9.506-8.826 0-5.166-3.397-8.965-9.506-8.965h-30.834v-.272l34.499-50.935zm40.218-24.179c-5.841 0-10.051 4.21-10.051 10.592v72.804c0 6.388 4.21 10.599 10.051 10.599 5.704 0 9.915-4.21 9.915-10.599V262.56c0-6.382-4.211-10.592-9.915-10.592zm75.66.817h-28.523c-5.432 0-8.693 3.533-8.693 8.825v73.754c0 6.388 4.21 10.599 10.051 10.599 5.704 0 9.914-4.21 9.914-10.599v-22.406c0-.545.272-.817.817-.817h16.433c20.102 0 32.192-12.226 32.192-29.612 0-17.658-11.953-29.744-32.191-29.744zm-1.222 42.103h-15.211c-.545 0-.817-.272-.817-.81v-23.23c0-.545.272-.816.817-.816h15.211c8.42 0 13.448 5.027 13.448 12.498-.001 7.47-5.028 12.358-13.448 12.358z"/></svg>