<svg class="svg-icon" viewBox="0 0 24 24" fill="none" xmlns="http://www.w3.org/2000/svg"><path fill-rule="evenodd" clip-rule="evenodd" d="M3 3.385C3 1.515 4.43 0 6.194 0h9.274c.655 0 1.27.334 1.651.898l3.5 5.167c.248.366.381.805.381 1.255v13.295C21 22.485 19.57 24 17.806 24H6.194C4.43 24 3 22.485 3 20.615V3.385Zm3.194-1.539c-.802 0-1.452.689-1.452 1.539v17.23c0 .85.65 1.539 1.452 1.539h11.613c.801 0 1.451-.689 1.451-1.539V8.181h-3.774c-.481 0-.871-.413-.871-.923V1.846h-8.42Z" fill="currentColor"/><path d="M15.336 13.219a.75.75 0 0 1-1.055.117l-1.28-1.026v3.44a.75.75 0 0 1-1.5 0v-3.44l-1.282 1.026a.75.75 0 1 1-.937-1.172l2.497-1.998a.747.747 0 0 1 .465-.166h.008c.18 0 .344.064.473.17l2.494 1.994a.75.75 0 0 1 .117 1.055Z" fill="currentColor"/></svg>