<svg class="svg-icon" xmlns="http://www.w3.org/2000/svg" viewBox="0 0 512 512" xml:space="preserve"><style/><path d="M378.413 0H195.114L185.8 9.314 57.02 138.102l-9.314 9.314v278.69c0 47.36 38.527 85.895 85.895 85.895h244.812c47.353 0 85.881-38.535 85.881-85.895V85.896C464.294 38.528 425.766 0 378.413 0zm54.084 426.105c0 29.877-24.214 54.091-54.084 54.091H133.601c-29.884 0-54.098-24.214-54.098-54.091V160.591h83.717c24.885 0 45.077-20.178 45.077-45.07V31.804h170.116c29.87 0 54.084 24.214 54.084 54.092v340.209z"/><path d="M234.899 261.478c0-5.432-3.658-9.51-9.636-9.51-4.762 0-8.295 2.583-9.789 9.238L203.8 312.274h-.28l-14.397-51.745c-1.62-5.705-4.609-8.56-9.51-8.56-4.748 0-7.737 2.856-9.37 8.56l-13.978 51.745h-.279l-12.094-51.068c-1.62-6.654-5.013-9.238-9.775-9.238-5.976 0-9.775 4.078-9.775 9.51 0 1.082.265 2.716.545 3.938l19.006 70.087c2.038 7.471 5.432 10.46 10.878 10.46 5.558 0 8.825-2.988 10.864-10.46l13.713-49.036h.265l13.992 49.036c2.178 7.471 5.306 10.46 10.864 10.46 5.447 0 8.84-2.988 10.878-10.46l19.006-70.087c.281-1.222.546-2.856.546-3.938zm47.563 2.171c-2.583-7.331-6.8-11.681-13.853-11.681-7.066 0-11.144 4.35-13.727 11.681l-24.996 69.138a11.183 11.183 0 0 0-.67 3.799c0 5.704 4.622 9.377 9.635 9.377 4.357 0 7.89-2.583 9.384-7.066l3.658-11.27h33.012l3.799 11.27c1.494 4.483 5.027 7.066 9.37 7.066 5.028 0 9.649-3.673 9.649-9.377 0-1.355-.279-2.716-.684-3.799l-24.577-69.138zm-24.856 46.997 10.725-32.328h.405l10.599 32.328h-21.729zm108.671-58.678c-4.622 0-8.016 2.444-9.65 7.743l-16.841 55.006h-.405l-17.791-55.006c-1.774-5.3-5.027-7.743-9.65-7.743-5.698 0-9.775 4.21-9.775 9.37 0 1.362.265 2.856.67 4.211l23.503 68.733c2.988 8.553 6.787 11.681 12.763 11.681 5.852 0 9.65-3.128 12.638-11.681l23.502-68.733c.404-1.354.67-2.849.67-4.211.002-5.16-3.936-9.37-9.634-9.37z"/></svg>