<svg class="svg-icon" viewBox="0 0 800 800" fill="none" stroke="currentColor" stroke-width="16" xmlns="http://www.w3.org/2000/svg">
<path d="M475.302 467.335L437.505 458.963C437.123 433.53 431.675 408.974 421.322 385.965L450.558 362.299C457.514 356.667 458.584 346.463 452.958 339.501L416.303 294.245C413.595 290.898 409.671 288.774 405.39 288.321C401.134 287.859 396.829 289.147 393.488 291.846L365.023 314.912C344.867 299.456 322.239 288.499 297.754 282.339V246.209C297.754 237.262 290.49 230 281.539 230H223.302C214.351 230 207.087 237.262 207.087 246.209V282.364C182.115 288.661 159.074 299.959 138.602 315.949L109.861 293.094C106.496 290.42 102.239 289.212 97.9262 289.674C93.6535 290.16 89.7456 292.324 87.0701 295.696L50.813 341.268C45.235 348.27 46.4024 358.474 53.4074 364.042L82.9353 387.513C72.8008 410.594 67.5714 435.159 67.4011 460.535L29.5711 469.272C20.8473 471.298 15.4071 479.986 17.4178 488.706L30.5197 545.447C32.5385 554.175 41.2622 559.605 49.9698 557.595L88.9916 548.591C100.577 570.328 116.103 589.26 135.132 604.861L117.538 641.737C113.679 649.817 117.101 659.486 125.184 663.344L177.754 688.428C179.951 689.473 182.342 690 184.734 690C186.566 690 188.391 689.692 190.15 689.076C194.204 687.633 197.52 684.659 199.376 680.777L217.197 643.407C240.895 647.97 265.567 647.897 289.184 643.147L307.313 680.299C311.237 688.355 320.974 691.67 329.001 687.771L381.343 662.258C389.386 658.335 392.734 648.626 388.81 640.586L370.925 603.921C389.856 588.15 405.228 569.063 416.644 547.197L455.657 555.845C464.381 557.766 473.056 552.271 474.994 543.518L487.618 486.672C488.542 482.474 487.78 478.073 485.453 474.45C483.15 470.82 479.502 468.259 475.302 467.335ZM323.925 461.767C323.925 501.147 291.876 533.184 252.473 533.184C213.086 533.184 181.037 501.147 181.037 461.767C181.037 422.387 213.078 390.349 252.473 390.349C291.876 390.357 323.925 422.387 323.925 461.767Z"/>
<path d="M519.721 360.78C525.98 360.78 531.996 357.256 534.883 351.223L543.726 332.697C559.047 335.659 575.064 335.592 590.301 332.521L599.278 350.938C603.331 359.261 613.391 362.726 621.722 358.665L644.301 347.649C648.303 345.694 651.365 342.229 652.817 338.025C654.26 333.821 653.983 329.207 652.02 325.205L643.185 307.123C655.418 296.938 665.386 284.587 672.777 270.399L691.891 274.628C700.902 276.625 709.896 270.919 711.91 261.874L717.33 237.35C719.327 228.305 713.63 219.344 704.568 217.339L686.244 213.278C686.009 196.816 682.477 180.916 675.773 166.023L689.81 154.655C693.267 151.852 695.473 147.791 695.926 143.37C696.396 138.948 695.071 134.509 692.268 131.053L676.461 111.528C670.613 104.321 660.041 103.222 652.859 109.053L639.317 120.019C626.278 110.01 611.637 102.92 595.788 98.9345V81.8182C595.788 72.5553 588.27 65.0376 579.007 65.0376H553.887C544.624 65.0376 537.106 72.5553 537.106 81.8182V98.9345C520.938 103.012 506.037 110.329 492.805 120.682L479.095 109.792C471.863 104.027 461.308 105.236 455.519 112.476L439.904 132.152C437.135 135.642 435.868 140.081 436.363 144.502C436.875 148.924 439.107 152.968 442.598 155.737L456.769 167.022C450.224 181.948 446.835 197.865 446.726 214.31L428.368 218.547C424.021 219.545 420.271 222.23 417.913 226.006C415.555 229.782 414.792 234.337 415.799 238.675L421.462 263.158C423.551 272.186 432.563 277.816 441.582 275.727L460.704 271.305C468.196 285.367 478.24 297.626 490.573 307.744L481.889 325.951C479.968 329.97 479.733 334.577 481.218 338.772C482.712 342.967 485.799 346.407 489.81 348.32L512.48 359.135C514.838 360.243 517.297 360.78 519.721 360.78ZM520.283 215.09C520.283 189.592 541.033 168.859 566.531 168.859C592.021 168.859 612.762 189.6 612.762 215.09C612.762 240.588 592.021 261.329 566.531 261.329C541.024 261.329 520.283 240.588 520.283 215.09Z"/>
<path d="M776.861 566.949L758.553 562.897C758.318 546.443 754.786 530.544 748.065 515.643L762.119 504.274C765.576 501.471 767.783 497.41 768.244 492.98C768.706 488.55 767.38 484.112 764.578 480.663L748.762 461.139C742.931 453.932 732.35 452.833 725.16 458.664L711.626 469.63C698.571 459.62 683.938 452.531 668.097 448.545V431.437C668.097 422.174 660.58 414.657 651.317 414.657H626.196C616.933 414.657 609.415 422.174 609.415 431.437V448.562C593.231 452.631 578.321 459.956 565.106 470.31L551.405 459.419C547.923 456.642 543.535 455.375 539.054 455.878C534.633 456.39 530.588 458.614 527.82 462.104L512.188 481.763C506.416 489.012 507.624 499.575 514.873 505.356L529.061 516.633C522.5 531.609 519.102 547.517 519.001 563.929L500.643 568.166C496.306 569.173 492.547 571.841 490.189 575.633C487.84 579.401 487.068 583.957 488.075 588.303L493.738 612.786C495.827 621.814 504.872 627.418 513.85 625.354L532.988 620.941C540.481 635.012 550.524 647.27 562.841 657.38L554.165 675.57C552.244 679.589 552.001 684.204 553.486 688.399C554.987 692.594 558.067 696.026 562.077 697.947L584.748 708.763C587.072 709.87 589.539 710.399 591.955 710.399C598.214 710.399 604.239 706.875 607.117 700.834L615.96 682.316C631.297 685.278 647.331 685.228 662.543 682.14L671.529 700.54C675.59 708.863 685.641 712.337 693.973 708.276L716.543 697.268C720.545 695.321 723.608 691.856 725.051 687.653C726.502 683.449 726.234 678.834 724.271 674.832L715.444 656.751C727.685 646.557 737.636 634.198 745.011 620.027L764.125 624.272C768.488 625.237 773.027 624.44 776.777 622.032C780.528 619.641 783.179 615.865 784.144 611.51L789.572 586.985C791.628 577.916 785.914 568.963 776.861 566.949ZM685.037 564.709C685.037 590.207 664.297 610.948 638.815 610.948C613.325 610.948 592.568 590.207 592.568 564.709C592.568 539.211 613.325 518.47 638.815 518.47C664.297 518.479 685.037 539.219 685.037 564.709Z"/>
</svg>
