<svg fill="currentColor" class="svg.keyicon" viewBox="0 0 32 32" xmlns="http://www.w3.org/2000/svg"><path d="M29 11.756h-1.526a11.981 11.981 0 0 0-.361-.87L28.2 9.81a2.11 2.11 0 0 0 .717-1.587c0-.545-.206-1.042-.545-1.417l.002.002-3.178-3.178a2.11 2.11 0 0 0-3.002.174l-.002.002-1.081 1.08a12.191 12.191 0 0 0-.868-.36L20.251 3A2.112 2.112 0 0 0 18.259.75h-4.501a2.113 2.113 0 0 0-1.999 2.257V3v1.524c-.295.109-.584.229-.87.361L9.815 3.801a2.11 2.11 0 0 0-3.005-.177l.002-.002-3.179 3.179a2.1 2.1 0 0 0-.544 1.415c0 .633.278 1.2.719 1.587l.002.002 1.078 1.079c-.132.287-.252.576-.362.872l-1.525-.007a2.114 2.114 0 0 0-2.25 1.993v4.5a2.115 2.115 0 0 0 2.257 2h-.007 1.525c.109.295.229.584.361.87l-1.084 1.071c-.443.39-.721.958-.721 1.592 0 .545.206 1.043.545 1.418l-.002-.002 3.179 3.178c.339.337.806.545 1.322.545h.021-.001a2.374 2.374 0 0 0 1.662-.722l.001-.001 1.079-1.079c.287.132.577.252.873.362l-.007 1.524a2.114 2.114 0 0 0 1.993 2.25h4.501a2.114 2.114 0 0 0 1.998-2.256v.007-1.526c.296-.11.585-.23.872-.362l1.069 1.079a2.38 2.38 0 0 0 1.66.723h.025c.515 0 .982-.207 1.323-.541l3.177-3.177a1.87 1.87 0 0 0 .541-1.32v-.028.001a2.373 2.373 0 0 0-.718-1.658h-.001l-1.08-1.081c.131-.285.251-.573.36-.868l1.525.007a2.113 2.113 0 0 0 2.249-1.994v-4.5a2.114 2.114 0 0 0-2.257-1.999h.007zm-.25 5.993-2.162-.011c-.026 0-.048.013-.074.015a1.196 1.196 0 0 0-.261.053l.008-.002c-.31.068-.565.263-.711.527l-.003.005a1.19 1.19 0 0 0-.124.238l-.003.008c-.008.024-.027.041-.034.066a9.66 9.66 0 0 1-.898 2.155l.025-.048c-.014.025-.013.054-.026.08a1.153 1.153 0 0 0-.071.215l-.001.008c-.023.072-.04.156-.048.242v.005a1.05 1.05 0 0 0 .162.657l-.003-.004c.045.088.096.163.154.232l-.001-.002c.017.019.022.043.04.061l1.529 1.531-2.469 2.467-1.516-1.529c-.02-.021-.048-.027-.069-.046a1.229 1.229 0 0 0-.2-.135l-.006-.003a1.392 1.392 0 0 0-.677-.173h-.006a1.317 1.317 0 0 0-.211.04l.009-.002a1.19 1.19 0 0 0-.276.089l.007-.003c-.022.011-.047.01-.069.022a9.593 9.593 0 0 1-2.043.859l-.07.017c-.027.008-.045.027-.071.037a1.15 1.15 0 0 0-.224.116l.004-.003a1.217 1.217 0 0 0-.199.135l.002-.002c-.053.052-.102.11-.145.171l-.003.004a.845.845 0 0 0-.206.411l-.001.005c-.024.074-.043.16-.051.249v.005c-.002.026-.015.048-.015.075l-.001 2.162h-3.491l.011-2.156c0-.028-.014-.052-.016-.079a1.168 1.168 0 0 0-.052-.258l.002.008a1.077 1.077 0 0 0-.531-.717l-.006-.003a1.212 1.212 0 0 0-.235-.122l-.008-.003c-.024-.008-.042-.027-.067-.034a9.666 9.666 0 0 1-2.161-.9l.048.025c-.023-.013-.05-.012-.073-.023a1.145 1.145 0 0 0-.244-.079l-.008-.001a1.072 1.072 0 0 0-.905.135l.004-.002c-.076.04-.141.084-.201.134l.002-.002c-.021.019-.048.025-.068.045l-1.529 1.529-2.47-2.469 1.532-1.516c.02-.02.027-.047.045-.067a1.28 1.28 0 0 0 .142-.209l.003-.006c.037-.058.071-.124.099-.194l.003-.008c.038-.14.062-.301.066-.467v-.003a1.261 1.261 0 0 0-.044-.231l.002.009a1.191 1.191 0 0 0-.083-.255l.003.007c-.012-.025-.011-.052-.025-.076a9.402 9.402 0 0 1-.858-2.041l-.017-.068c-.007-.026-.027-.045-.036-.07a1.163 1.163 0 0 0-.118-.228l.003.005a1.19 1.19 0 0 0-.133-.197l.002.002a1.286 1.286 0 0 0-.169-.144l-.004-.003a1.173 1.173 0 0 0-.2-.136l-.006-.003a1.126 1.126 0 0 0-.196-.066l-.008-.002a1.131 1.131 0 0 0-.259-.053h-.005c-.026-.002-.047-.015-.073-.015l-2.162-.001v-3.492l2.162.011c.16-.002.311-.035.45-.092l-.008.003c.054-.024.099-.048.142-.075l-.005.003c.09-.047.168-.1.239-.16l-.002.001a1.23 1.23 0 0 0 .118-.122l.002-.002c.056-.065.106-.138.147-.215l.003-.007c.027-.047.054-.102.076-.159l.003-.008c.01-.028.029-.05.037-.078.23-.805.527-1.506.899-2.159l-.025.048c.014-.024.013-.052.025-.076a1.14 1.14 0 0 0 .075-.229l.001-.008a1.307 1.307 0 0 0-.268-1.121l.002.002c-.017-.02-.023-.045-.042-.063L5.752 8.213l2.469-2.469 1.518 1.531c.055.045.116.087.18.122l.006.003c.042.033.089.065.138.094l.006.003c.16.088.35.142.551.148h.002l.005.001c.012 0 .023-.009.034-.009.186-.008.359-.056.513-.135l-.007.003c.022-.011.047-.006.07-.018a9.452 9.452 0 0 1 2.041-.858l.069-.017c.025-.007.042-.026.066-.034.091-.035.17-.076.243-.125l-.004.003c.069-.038.128-.079.183-.124l-.002.002c.058-.056.11-.117.156-.183l.003-.004a1.28 1.28 0 0 0 .126-.185l.003-.006c.028-.062.053-.135.07-.21l.002-.008c.024-.073.042-.158.05-.247v-.005c.002-.027.015-.049.015-.076l.001-2.162h3.491l-.011 2.156c0 .028.014.051.015.079.008.093.026.178.052.26l-.002-.008c.019.084.044.157.075.227l-.003-.008c.04.073.082.136.13.194l-.002-.002c.048.07.101.131.158.187.053.044.112.084.174.12l.006.003c.068.046.147.087.23.119l.008.003c.025.009.043.028.069.035a9.569 9.569 0 0 1 2.155.899l-.047-.025c.022.012.046.007.068.018.147.076.32.124.503.132h.003c.012 0 .024.009.036.009l.028-.008c.193-.008.372-.059.531-.143l-.007.003c.059-.033.109-.066.156-.104l-.003.002a1.16 1.16 0 0 0 .181-.12l-.002.002 1.531-1.528 2.469 2.47-1.531 1.516c-.02.02-.027.047-.046.068a1.28 1.28 0 0 0-.142.209l-.003.006a.863.863 0 0 0-.148.434v.002a.874.874 0 0 0 .025.464l-.002-.006c.02.094.047.176.083.254l-.003-.007c.012.025.011.053.025.078.347.604.645 1.303.858 2.038l.017.068c.008.03.028.052.038.08.024.062.049.113.077.163l-.003-.006a1.26 1.26 0 0 0 1.09.674h.001l2.162.001zM16 10.75A5.25 5.25 0 1 0 21.25 16 5.257 5.257 0 0 0 16 10.75zm0 8A2.75 2.75 0 1 1 18.75 16 2.754 2.754 0 0 1 16 18.75z"/></svg>