<svg class="svg-icon" viewBox="0 0 800 800" fill="none" xmlns="http://www.w3.org/2000/svg">
<path d="M474.28 504.447L435.164 495.78C434.77 469.451 429.131 444.029 418.417 420.208L448.672 395.709C455.871 389.877 456.979 379.314 451.156 372.107L413.223 325.255C410.421 321.79 406.36 319.592 401.93 319.122C397.525 318.644 393.07 319.978 389.613 322.772L360.154 346.65C339.296 330.65 315.879 319.306 290.54 312.93V275.526C290.54 266.263 283.022 258.745 273.759 258.745H213.492C204.229 258.745 196.711 266.263 196.711 275.526V312.955C170.869 319.474 147.024 331.17 125.838 347.724L96.0944 324.064C92.6124 321.295 88.2075 320.045 83.7438 320.523C79.3222 321.026 75.278 323.267 72.5092 326.757L34.9877 373.936C29.2152 381.185 30.4234 391.748 37.6726 397.513L68.2302 421.811C57.7423 445.707 52.3305 471.138 52.1543 497.408L13.0051 506.452C3.97709 508.55 -1.65281 517.544 0.42799 526.572L13.9867 585.313C16.0759 594.349 25.1039 599.971 34.1151 597.89L74.4977 588.569C86.4875 611.071 102.555 630.671 122.247 646.823L104.04 684.998C100.046 693.364 103.587 703.373 111.952 707.367L166.355 733.335C168.629 734.417 171.104 734.963 173.579 734.963C175.475 734.963 177.363 734.644 179.184 734.006C183.379 732.513 186.811 729.434 188.732 725.415L207.174 686.727C231.699 691.451 257.23 691.375 281.671 686.458L300.432 724.92C304.493 733.26 314.57 736.691 322.876 732.655L377.044 706.243C385.367 702.182 388.833 692.13 384.772 683.807L366.263 645.849C385.854 629.522 401.762 609.762 413.576 587.125L453.95 596.078C462.978 598.066 471.955 592.378 473.961 583.316L487.024 524.466C487.981 520.12 487.192 515.564 484.784 511.814C482.401 508.055 478.626 505.404 474.28 504.447ZM317.624 498.683C317.624 539.452 284.457 572.619 243.68 572.619C202.92 572.619 169.753 539.452 169.753 498.683C169.753 457.914 202.912 424.748 243.68 424.748C284.457 424.756 317.624 457.914 317.624 498.683Z" fill="currentColor"/>
<path d="M519.721 360.78C525.981 360.78 531.996 357.256 534.883 351.223L543.726 332.697C559.047 335.659 575.064 335.592 590.301 332.521L599.278 350.938C603.331 359.261 613.391 362.726 621.722 358.665L644.301 347.649C648.303 345.694 651.365 342.229 652.817 338.025C654.26 333.821 653.983 329.207 652.02 325.205L643.185 307.123C655.418 296.938 665.386 284.587 672.777 270.399L691.891 274.628C700.902 276.625 709.896 270.919 711.91 261.874L717.33 237.35C719.327 228.305 713.63 219.344 704.568 217.339L686.244 213.278C686.009 196.816 682.477 180.916 675.773 166.023L689.81 154.655C693.267 151.852 695.473 147.791 695.926 143.37C696.396 138.948 695.071 134.509 692.268 131.053L676.461 111.528C670.613 104.321 660.041 103.222 652.859 109.053L639.317 120.019C626.278 110.01 611.637 102.92 595.788 98.9345V81.8182C595.788 72.5553 588.27 65.0376 579.007 65.0376H553.887C544.624 65.0376 537.106 72.5553 537.106 81.8182V98.9345C520.938 103.012 506.037 110.329 492.805 120.682L479.095 109.792C471.863 104.027 461.308 105.236 455.519 112.476L439.904 132.152C437.135 135.642 435.868 140.081 436.364 144.502C436.875 148.924 439.107 152.968 442.598 155.737L456.769 167.022C450.224 181.948 446.835 197.865 446.726 214.31L428.368 218.547C424.021 219.545 420.271 222.23 417.913 226.006C415.556 229.782 414.792 234.337 415.799 238.675L421.462 263.158C423.551 272.186 432.563 277.816 441.582 275.727L460.704 271.305C468.196 285.367 478.24 297.626 490.573 307.744L481.889 325.951C479.968 329.97 479.733 334.577 481.218 338.772C482.712 342.967 485.799 346.407 489.81 348.32L512.48 359.135C514.838 360.243 517.297 360.78 519.721 360.78ZM520.283 215.09C520.283 189.592 541.033 168.859 566.531 168.859C592.021 168.859 612.762 189.6 612.762 215.09C612.762 240.588 592.021 261.329 566.531 261.329C541.024 261.329 520.283 240.588 520.283 215.09Z" fill="currentColor"/>
<path d="M786.861 537.949L768.553 533.897C768.318 517.443 764.786 501.544 758.065 486.643L772.119 475.274C775.576 472.471 777.783 468.41 778.244 463.98C778.706 459.55 777.38 455.112 774.578 451.663L758.762 432.139C752.931 424.932 742.35 423.833 735.16 429.664L721.626 440.63C708.571 430.62 693.938 423.531 678.097 419.545V402.437C678.097 393.174 670.58 385.657 661.317 385.657H636.196C626.933 385.657 619.415 393.174 619.415 402.437V419.562C603.231 423.631 588.321 430.956 575.106 441.31L561.405 430.419C557.923 427.642 553.535 426.375 549.054 426.878C544.633 427.39 540.588 429.614 537.82 433.104L522.188 452.763C516.416 460.012 517.624 470.575 524.873 476.356L539.061 487.633C532.5 502.609 529.102 518.517 529.001 534.929L510.643 539.166C506.306 540.173 502.547 542.841 500.189 546.633C497.84 550.401 497.068 554.957 498.075 559.303L503.738 583.786C505.827 592.814 514.872 598.418 523.85 596.354L542.988 591.941C550.481 606.012 560.524 618.27 572.841 628.38L564.165 646.57C562.244 650.589 562 655.204 563.486 659.399C564.987 663.594 568.067 667.026 572.077 668.947L594.748 679.763C597.072 680.87 599.539 681.399 601.955 681.399C608.214 681.399 614.239 677.875 617.117 671.834L625.96 653.316C641.297 656.278 657.331 656.228 672.543 653.14L681.529 671.54C685.59 679.863 695.642 683.337 703.973 679.276L726.543 668.268C730.545 666.321 733.608 662.856 735.051 658.653C736.502 654.449 736.234 649.834 734.271 645.832L725.444 627.751C737.685 617.557 747.636 605.198 755.011 591.027L774.125 595.272C778.488 596.237 783.027 595.44 786.777 593.032C790.528 590.641 793.179 586.865 794.144 582.51L799.572 557.985C801.628 548.916 795.914 539.963 786.861 537.949ZM695.037 535.709C695.037 561.207 674.297 581.948 648.815 581.948C623.325 581.948 602.568 561.207 602.568 535.709C602.568 510.211 623.325 489.47 648.815 489.47C674.297 489.479 695.037 510.219 695.037 535.709Z" fill="currentColor"/>
</svg>
