<svg class="svg-icon" viewBox="0 0 24 24" fill="none" xmlns="http://www.w3.org/2000/svg">
<path d="M20.36 0.751291C20.2965 0.598662 20.2003 0.460887 20.0779 0.347097C19.9554 0.233307 19.8095 0.146101 19.6497 0.0912591L19.6472 0.0900592L19.6447 0.0888592L19.6398 0.0876589L19.6299 0.084059L19.6102 0.0780586C19.5558 0.0616452 19.5006 0.0484207 19.4446 0.0384567C19.3386 0.0191209 19.2312 0.00709039 19.1234 0.00245504C18.7961 -0.0089247 18.4687 0.0225597 18.15 0.0960596C17.4867 0.240066 16.6257 0.568882 15.5436 1.24211L15.3286 1.37892C13.2206 0.870696 11.0168 0.870696 8.90879 1.37892L8.69508 1.24211C7.61296 0.567682 6.74949 0.238866 6.0849 0.0948593C5.76493 0.0216856 5.43628 -0.00939379 5.10778 0.00245504C4.94411 0.0104447 4.78177 0.0353873 4.62355 0.0768586L4.60255 0.084059L4.59267 0.086459L4.58772 0.0876589L4.58525 0.0888592C4.42362 0.143756 4.27477 0.231737 4.15116 0.346851C4.02755 0.461964 3.93083 0.601524 3.86755 0.756091C3.34689 1.99753 3.22418 3.36276 3.51549 4.67308C2.66238 5.86161 2.21515 7.28047 2.23696 8.72927C2.23819 11.6778 3.12513 13.6963 4.62355 14.9948C5.4722 15.7304 6.45673 16.1804 7.44743 16.4648C7.55985 16.4972 7.67349 16.5272 7.78714 16.556C7.69384 16.8709 7.63748 17.195 7.61914 17.5221L7.57714 19.705V19.7494C7.30333 19.8157 7.01743 19.8196 6.74182 19.7607C6.46622 19.7018 6.2084 19.5817 5.98855 19.4098C5.7979 19.2618 5.63921 19.0787 5.52161 18.871L5.50926 18.8506C5.18559 18.3043 4.73822 17.8367 4.20104 17.4833C3.66385 17.1298 3.05092 16.8997 2.40866 16.8105C2.24798 16.7884 2.0844 16.7973 1.92726 16.8366C1.77012 16.876 1.6225 16.945 1.49282 17.0398C1.36315 17.1346 1.25395 17.2532 1.17148 17.389C1.08901 17.5248 1.03487 17.675 1.01216 17.8311C0.989451 17.9872 0.99861 18.1461 1.03912 18.2988C1.07963 18.4514 1.15069 18.5948 1.24825 18.7208C1.34581 18.8468 1.46795 18.9529 1.60771 19.033C1.74747 19.1131 1.9021 19.1657 2.06278 19.1878C2.33188 19.2248 2.5888 19.3207 2.81414 19.4683C3.03948 19.6159 3.22735 19.8113 3.36355 20.0398C3.91826 21.0113 4.84658 21.7298 5.94531 22.0379C6.47649 22.1867 7.03237 22.2347 7.58332 22.1795L7.58579 22.7999C7.58579 23.4624 8.10955 24 8.75561 24H15.5226C16.1686 24 16.6924 23.4624 16.6924 22.7999V18.2517C16.7287 17.6666 16.6538 17.08 16.4713 16.5212C16.5454 16.5032 16.6195 16.4852 16.6936 16.4648C17.7115 16.1924 18.7282 15.746 19.6027 14.9972C21.1098 13.7059 21.9992 11.685 21.9992 8.72927C22.0214 7.2806 21.5746 5.86176 20.7219 4.67308C21.0125 3.36025 20.8871 1.99265 20.36 0.751291Z" fill="currentColor"/>
</svg>