<svg class="svg-icon" viewBox="0 0 720 720" fill="none" xmlns="http://www.w3.org/2000/svg"><path d="M297 150.484c0-14.981 6.604-29.347 18.36-39.94C327.116 99.951 343.061 94 359.687 94h.626c16.626 0 32.57 5.951 44.326 16.544C416.396 121.137 423 135.503 423 150.484c0 14.98-6.604 29.347-18.361 39.94-11.756 10.593-27.7 16.544-44.326 16.544h-.626c-16.626 0-32.571-5.951-44.327-16.544S297 165.464 297 150.484ZM297.627 569.516c0 14.98 6.604 29.347 18.36 39.94C327.743 620.049 343.688 626 360.313 626c16.626 0 32.57-5.951 44.326-16.544 11.757-10.593 18.361-24.96 18.361-39.94v-282.42c0-14.98-6.604-29.347-18.361-39.94-11.756-10.593-27.7-16.544-44.326-16.544-16.625 0-32.57 5.951-44.326 16.544s-18.36 24.96-18.36 39.94v282.42Z" fill="currentColor"/><path fill-rule="evenodd" clip-rule="evenodd" d="M105.442 105.442a359.997 359.997 0 0 0 0 509.116A359.995 359.995 0 0 0 360 720a359.995 359.995 0 0 0 254.558-105.442A359.995 359.995 0 0 0 720 360a359.995 359.995 0 0 0-105.442-254.558 359.997 359.997 0 0 0-509.116 0Zm147.407-4.128a280 280 0 1 1 214.302 517.372A280 280 0 0 1 252.85 101.314Z" fill="currentColor"/></svg>