<svg class="svg-icon" viewBox="0 0 720 720" fill="none" xmlns="http://www.w3.org/2000/svg"><path fill-rule="evenodd" clip-rule="evenodd" d="M0 360a359.997 359.997 0 0 1 105.442-254.558 359.997 359.997 0 0 1 509.116 0A359.995 359.995 0 0 1 720 360a359.995 359.995 0 0 1-105.442 254.558A359.995 359.995 0 0 1 360 720a359.995 359.995 0 0 1-254.558-105.442A359.997 359.997 0 0 1 0 360Zm292-258.574c0-18.413 7.129-36.072 19.818-49.092C324.507 39.314 341.717 32 359.662 32h.676c17.945 0 35.155 7.315 47.844 20.334C420.871 65.355 428 83.014 428 101.427c0 18.414-7.129 36.072-19.818 49.092-12.689 13.02-29.899 20.335-47.844 20.335h-.676c-17.945 0-35.155-7.315-47.844-20.335S292 119.84 292 101.426Zm.677 516.148c0 18.413 7.128 36.071 19.817 49.091C325.183 679.685 342.393 687 360.338 687s35.155-7.315 47.844-20.335S428 635.987 428 617.574V270.441c0-18.413-7.129-36.072-19.818-49.092-12.689-13.02-29.899-20.334-47.844-20.334s-35.155 7.314-47.844 20.334-19.817 30.679-19.817 49.092v347.133Z" fill="currentColor"/></svg>