<svg class="svg-icon" viewBox="0 0 800 800" fill="none" xmlns="http://www.w3.org/2000/svg"><path fill-rule="evenodd" clip-rule="evenodd" d="M163.2 4h474.6C724.81 4 796 75.19 796 162.2v474.6c0 87.01-71.19 158.2-158.2 158.2H163.2C76.19 795 5 723.81 5 636.8V162.2C5 75.19 76.19 4 163.2 4Zm39.55 395.5c0 108.763 88.987 197.75 197.75 197.75s197.75-88.987 197.75-197.75-88.987-197.75-197.75-197.75-197.75 88.987-197.75 197.75ZM621 235c38.66 0 70-31.34 70-70s-31.34-70-70-70-70 31.34-70 70 31.34 70 70 70Z" fill="currentColor"/></svg>