<svg class="svg-icon" viewBox="0 0 192 192" fill="none" xmlns="http://www.w3.org/2000/svg"><path d="M96 183c-18.655 0-32.08-.009-42.546-1.024-10.346-1.003-16.965-2.931-22.247-6.25a47.46 47.46 0 0 1-14.935-14.933c-3.317-5.282-5.246-11.901-6.248-22.247C9.01 128.079 9 114.655 9 96s.01-32.08 1.024-42.546c1.002-10.346 2.93-16.965 6.248-22.247a47.455 47.455 0 0 1 14.935-14.935c5.282-3.317 11.901-5.246 22.247-6.248C63.92 9.01 77.344 9 96 9c18.655 0 32.079.01 42.546 1.024 10.346 1.002 16.965 2.93 22.247 6.248a47.46 47.46 0 0 1 14.933 14.935c3.319 5.282 5.247 11.901 6.25 22.247C182.991 63.921 183 77.345 183 96s-.009 32.079-1.024 42.546c-1.003 10.346-2.931 16.965-6.25 22.247a47.46 47.46 0 0 1-14.933 14.933c-5.282 3.319-11.901 5.247-22.247 6.25C128.079 182.991 114.655 183 96 183Z" stroke="currentColor" stroke-width="12"/><path d="M96 136c22.091 0 40-17.909 40-40s-17.909-40-40-40-40 17.909-40 40 17.909 40 40 40Z" stroke="currentColor" stroke-width="12"/><path d="M147.5 56c6.351 0 11.5-5.149 11.5-11.5S153.851 33 147.5 33 136 38.149 136 44.5 141.149 56 147.5 56Z" fill="currentColor"/></svg>