<svg class="svg-icon" viewBox="0 0 24 24" fill="currentColor" xmlns="http://www.w3.org/2000/svg"><path d="m14.932 12.548 3.347-3.39c.293-.293.628-.67.963-1.088.334-.377.71-.711 1.088-1.005.711-.628 1.548-1.171 2.595-1.171.92 0 1.715.419 2.301.962.586.544.921 1.34.921 2.261 0 .376-.041.796-.167 1.089-.224.47-.49.918-.796 1.339-.125.167-.251.335-.251.502 0 .126 0 .252.084.293.46 1.13.795 2.094 1.004 3.266.126.46.376.67.795.67a.801.801 0 0 0 .502-.168c.335-.21.628-.544.921-.879.168-.167.294-.335.377-.419A8.011 8.011 0 0 0 31 9.118a8.067 8.067 0 0 0-2.384-5.733C27.15 1.962 25.102 1 22.926 1c-2.175 0-4.268.879-5.731 2.428L11.464 9.12C9.958 10.668 9.12 12.677 9.12 14.81c0 .629.252 1.926.67 3.14.418 1.171.962 2.217 1.673 2.217.376 0 1.171-.628 1.84-1.339.67-.711 1.34-1.507 1.34-1.8 0-.209-.168-.46-.335-.837-.21-.376-.294-.837-.294-1.38 0-.838.335-1.675.921-2.261l-.004-.003Zm-.124 16.07 5.731-5.69c1.506-1.466 2.343-3.6 2.343-5.734 0-.628-.252-1.883-.67-3.098-.376-1.172-.962-2.26-1.673-2.26-.293 0-1.171.67-1.8 1.38-.71.712-1.38 1.466-1.38 1.759 0 .209.126.543.335.878.209.377.376.796.376 1.34a3.875 3.875 0 0 1-.962 2.343l-3.389 3.348c-.293.335-.627.67-.962 1.046l-1.046 1.046c-.71.67-1.59 1.13-2.636 1.13a3.148 3.148 0 0 1-2.945-1.959 3.154 3.154 0 0 1-.234-1.221c0-.42.084-.796.209-1.089.251-.587.502-1.005.795-1.34a.776.776 0 0 0 .167-.46c0-.084-.041-.167-.084-.335a13.353 13.353 0 0 1-1.004-3.265c-.085-.209-.126-.376-.252-.46-.126-.168-.335-.21-.543-.21a.696.696 0 0 0-.46.168c-.336.209-.67.544-.964.879-.125.167-.293.293-.376.376A8.184 8.184 0 0 0 1 22.923c0 2.218.878 4.27 2.384 5.733A7.998 7.998 0 0 0 9.074 31c2.175 0 4.268-.837 5.731-2.385l.003.004Z"/></svg>