<svg class="svg-icon" viewBox="0 0 24 24" xmlns="http://www.w3.org/2000/svg"><path d="M9.239 22.889a.997.997 0 0 0 1.414 0L22.767 10.68a1 1 0 0 0-1.414-1.414L9.239 21.475a.999.999 0 0 0 0 1.414zm5.632-2.129c.331 1.457-.026 2.887-1.152 4.014L9.68 28.688c-.85.849-1.98 1.317-3.182 1.317s-2.332-.468-3.182-1.317c-1.754-1.755-1.754-4.61-.01-6.354l3.946-4.07a4.475 4.475 0 0 1 3.182-1.318c.411 0 .807.073 1.193.179l1.561-1.561a6.48 6.48 0 0 0-7.35 1.285L1.902 20.91a6.501 6.501 0 0 0 4.596 11.097 6.477 6.477 0 0 0 4.596-1.904l4.03-3.904c1.942-1.942 2.361-4.648 1.333-7.023zM30.098 1.899a6.482 6.482 0 0 0-4.596-1.904 6.477 6.477 0 0 0-4.596 1.904l-4.029 3.905a6.5 6.5 0 0 0-1.244 7.439l1.552-1.552c-.459-1.534-.107-3.261 1.096-4.463l4.039-3.914a4.477 4.477 0 0 1 3.183-1.318c1.201 0 2.332.469 3.181 1.318 1.754 1.755 1.754 4.611.01 6.354l-4.039 4.039a4.467 4.467 0 0 1-3.181 1.317c-.306 0-.576.031-.87-.029l-1.593 1.594c.796.331 1.613.436 2.463.436a6.478 6.478 0 0 0 4.596-1.904l4.029-4.029a6.5 6.5 0 0 0 0-9.192z" stroke="currentColor"/></svg>