<svg xmlns="http://www.w3.org/2000/svg" class="svg-icon" viewBox="0 0 100 100" xml:space="preserve"><path fill="none" stroke="currentColor" stroke-width="4" stroke-linejoin="round" stroke-miterlimit="10" d="M50.188 26.812c12.806 0 23.188 10.381 23.188 23.188"/><circle cx="73.375" cy="50" r="1.959"/><circle cx="72.029" cy="57.704" r="1.959"/><circle cx="68.237" cy="64.579" r="1.959"/><circle cx="62.324" cy="69.759" r="1.959"/><circle cx="55.013" cy="72.699" r="1.959"/><circle transform="rotate(-4.554 27.057 51.864)" cx="27.045" cy="51.843" r="1.959"/><circle transform="rotate(-4.554 29.012 59.44)" cx="28.998" cy="59.416" r="1.959"/><circle transform="rotate(-4.554 33.34 65.996)" cx="33.325" cy="65.967" r="1.959"/><circle transform="rotate(-4.554 39.649 70.691)" cx="39.63" cy="70.661" r="1.959"/><circle transform="rotate(-4.554 47.174 73.042)" cx="47.152" cy="73.012" r="1.959"/><circle transform="rotate(-4.974 27.696 44.029)" cx="27.71" cy="44.049" r="1.959"/><circle transform="rotate(-4.974 30.877 36.854)" cx="30.892" cy="36.872" r="1.959"/><circle transform="rotate(-4.974 36.316 31.185)" cx="36.334" cy="31.199" r="1.959"/><circle transform="rotate(-4.974 43.341 27.624)" cx="43.363" cy="27.636" r="1.959"/></svg>