<svg viewBox="1 0 20 20"  xmlns="http://www.w3.org/2000/svg">
<path d="M8.62868 1.56985L7.24265 2.08824C7.13235 2.12868 7.05882 2.23529 7.05882 2.35294C7.05882 2.47059 7.13235 2.57721 7.24265 2.61765L8.62868 3.13603L9.14706 4.52206C9.1875 4.63235 9.29412 4.70588 9.41177 4.70588C9.52941 4.70588 9.63603 4.63235 9.67647 4.52206L10.1949 3.13603L11.5809 2.61765C11.6912 2.57721 11.7647 2.47059 11.7647 2.35294C11.7647 2.23529 11.6912 2.12868 11.5809 2.08824L10.1949 1.56985L9.67647 0.183824C9.63603 0.0735294 9.52941 0 9.41177 0C9.29412 0 9.1875 0.0735294 9.14706 0.183824L8.62868 1.56985ZM1.69485 14.5368C1.00735 15.2243 1.00735 16.3419 1.69485 17.0331L2.96691 18.3051C3.65441 18.9926 4.77206 18.9926 5.46324 18.3051L19.4816 4.28309C20.1691 3.59559 20.1691 2.47794 19.4816 1.78676L18.2096 0.518382C17.5221 -0.169118 16.4044 -0.169118 15.7132 0.518382L1.69485 14.5368ZM17.8162 3.03676L13.9559 6.89706L13.0993 6.04044L16.9596 2.18015L17.8162 3.03676ZM0.275735 4.30882C0.110294 4.37132 0 4.52941 0 4.70588C0 4.88235 0.110294 5.04044 0.275735 5.10294L2.35294 5.88235L3.13235 7.95956C3.19485 8.125 3.35294 8.23529 3.52941 8.23529C3.70588 8.23529 3.86397 8.125 3.92647 7.95956L4.70588 5.88235L6.78309 5.10294C6.94853 5.04044 7.05882 4.88235 7.05882 4.70588C7.05882 4.52941 6.94853 4.37132 6.78309 4.30882L4.70588 3.52941L3.92647 1.45221C3.86397 1.28676 3.70588 1.17647 3.52941 1.17647C3.35294 1.17647 3.19485 1.28676 3.13235 1.45221L2.35294 3.52941L0.275735 4.30882ZM13.2169 13.7206C13.0515 13.7831 12.9412 13.9412 12.9412 14.1176C12.9412 14.2941 13.0515 14.4522 13.2169 14.5147L15.2941 15.2941L16.0735 17.3713C16.136 17.5368 16.2941 17.6471 16.4706 17.6471C16.6471 17.6471 16.8051 17.5368 16.8676 17.3713L17.6471 15.2941L19.7243 14.5147C19.8897 14.4522 20 14.2941 20 14.1176C20 13.9412 19.8897 13.7831 19.7243 13.7206L17.6471 12.9412L16.8676 10.864C16.8051 10.6985 16.6471 10.5882 16.4706 10.5882C16.2941 10.5882 16.136 10.6985 16.0735 10.864L15.2941 12.9412L13.2169 13.7206Z" fill="currentColor"/>
</svg>
