<svg class="svg-icon" xmlns="http://www.w3.org/2000/svg" viewBox="0 0 512 512" xml:space="preserve"><style/><path d="M379.937 200.743v49.573c-.012 34.204-13.87 65.085-36.346 87.596-22.513 22.478-53.384 36.335-87.586 36.335-34.204 0-65.086-13.857-87.598-36.335-22.476-22.511-36.333-53.393-36.345-87.596v-49.573H95.49v49.573c.035 82.37 62.275 150.266 142.23 159.384v69.787h-46.739V512h130.026v-32.513h-46.715V409.7c79.942-9.119 142.182-77.014 142.218-159.384v-49.573h-36.573z"/><path d="M256.006 334.032c46.155 0 83.704-37.561 83.704-83.716v-166.6C339.71 37.561 302.161 0 256.006 0c-46.156 0-83.717 37.561-83.717 83.716v166.599c0 46.156 37.561 83.717 83.717 83.717z"/></svg>