<svg fill="currentColor" class="svg-icon" viewBox="0 -8 72 72" xmlns="http://www.w3.org/2000/svg"><path d="M59.16 11.18H12.83a5.39 5.39 0 0 0-5.22 5.56v22.44a6.77 6.77 0 0 0 1.88 4.38 5.54 5.54 0 0 0 3.34 1.26h46.33a5.47 5.47 0 0 0 5.23-5.64V16.74a5.4 5.4 0 0 0-5.23-5.56Zm1.34 21.7a12.27 12.27 0 0 0-7 7.74h-35a13 13 0 0 0-7-7.66V23a11.59 11.59 0 0 0 4.5-3.21 13 13 0 0 0 2.53-4.48h35a11.52 11.52 0 0 0 7 7.76v9.81Z"/><path d="M36 18c-5.09 0-9.21 4.45-9.21 9.94s4.12 9.93 9.21 9.93 9.21-4.45 9.21-9.93S41 18 36 18Zm.75 15.62v1.86h-1.66v-1.69a6.25 6.25 0 0 1-2.9-.79l.5-2.14a5.68 5.68 0 0 0 2.82.8c1 0 1.63-.4 1.63-1.13s-.54-1.14-1.8-1.6c-1.82-.66-3.06-1.58-3.06-3.36a3.31 3.31 0 0 1 2.88-3.27v-1.75h1.68v1.63a5.82 5.82 0 0 1 2.45.6l-.49 2.08a5.26 5.26 0 0 0-2.46-.63c-1.1 0-1.46.51-1.46 1s.59 1 2 1.58c2 .77 2.83 1.78 2.83 3.43a3.43 3.43 0 0 1-3 3.42Z"/></svg>