<svg xmlns="http://www.w3.org/2000/svg" fill="currentColor" class="svg-icon" viewBox="0 0 48 48"><path d="M39.0763 35.3074C29.5263 37.1048 20.7662 29.8542 20.7662 20.3086C20.7662 14.8047 23.7409 9.74753 28.5723 7.02602C29.3211 6.60967 29.1262 5.49263 28.2851 5.33015C16.1502 3.11638 5 12.3167 5 24.5026C5 35.2668 13.8012 44 24.6744 44C30.747 44 36.2862 41.2683 39.9584 36.7799C40.5021 36.1198 39.9072 35.1449 39.0763 35.3074ZM39.0763 15.0789L40.7175 11.8293L44 10.2045L40.7175 8.57972L39.0763 5.33015L37.435 8.57972L34.1526 10.2045L37.435 11.8293L39.0763 15.0789Z"/></svg>
