<svg xmlns="http://www.w3.org/2000/svg" fill="currentColor" class="svg-icon" viewBox="0 0 48 48"><path d="M41.94 37.3014C30.1862 39.5136 19.4045 30.5898 19.4045 18.8414C19.4045 12.0673 23.0658 5.84312 29.0121 2.49356C29.9337 1.98113 29.6938 0.606314 28.6586 0.406341C13.7233 -2.3183 0 9.0052 0 24.0032C0 37.2514 10.8322 48 24.2146 48C31.6886 48 38.506 44.6379 43.0258 39.1137C43.6949 38.3013 42.9626 37.1015 41.94 37.3014ZM41.94 12.4047L43.96 8.40527L48 6.40554L43.96 4.40581L41.94 0.406341L39.92 4.40581L35.8801 6.40554L39.92 8.40527L41.94 12.4047Z"/></svg>
