<svg class="svg-icon" viewBox="0 0 24 24" fill="none" xmlns="http://www.w3.org/2000/svg"><path fill-rule="evenodd" clip-rule="evenodd" d="M5 4a1 1 0 0 0-1 1v14a1 1 0 0 0 1 1h8a1 1 0 0 0 1-1V5a1 1 0 0 0-1-1H5Zm0 18h14a3 3 0 0 0 3-3V9a3 3 0 0 0-3-3h-3V5a3 3 0 0 0-3-3H5a3 3 0 0 0-3 3v14a3 3 0 0 0 3 3Zm14-2h-3.17c.11-.313.17-.65.17-1V8h3a1 1 0 0 1 1 1v10a1 1 0 0 1-1 1ZM7 14H5v2h2v-2Zm1 0h2v2H8v-2Zm5 0h-2v2h2v-2Zm4 0h2v2h-2v-2Zm2-4h-2v2h2v-2ZM5 10h2v2H5v-2Zm5 0H8v2h2v-2Zm1 0h2v2h-2v-2ZM7 6H5v2h2V6Zm1 0h2v2H8V6Zm5 0h-2v2h2V6Z" fill="currentColor"/></svg>