<svg class="svg-icon" viewBox="0 0 400 400" fill="none" xmlns="http://www.w3.org/2000/svg"><path d="M137.5 75a124.999 124.999 0 0 0-88.388 213.388 124.996 124.996 0 0 0 136.223 27.097A125.002 125.002 0 0 0 262.5 200a125 125 0 0 0-125-125Zm0 162.5a37.497 37.497 0 0 1-36.779-44.816A37.5 37.5 0 0 1 175 200a37.443 37.443 0 0 1-10.969 26.531A37.443 37.443 0 0 1 137.5 237.5Z" fill="currentColor"/><path d="M278 168.75c31.76 9.14 69.25 0 69.25 0-10.88 47.5-45.38 77.25-95.13 80.87A124.733 124.733 0 0 1 137.5 325L175 205.81C213.55 83.3 233.31 75 324.73 75h62.77c-10.5 46.25-46.69 81.58-109.5 93.75Z" fill="currentColor"/></svg>