<svg class="svg-icon" xmlns="http://www.w3.org/2000/svg" viewBox="0 0 512 512" xml:space="preserve"><path d="M423.262 91.992c-16.877-15.91-43.434-15.098-59.32 1.778-15.894 16.877-15.098 43.434 1.779 59.32 32.082 30.213 49.754 71.238 49.754 115.5 0 87.934-71.541 159.476-159.476 159.476S96.525 356.524 96.525 268.59c0-44.262 17.668-85.287 49.754-115.5 16.877-15.885 17.672-42.442 1.779-59.32-15.885-16.885-42.455-17.688-59.32-1.778C40.344 137.557 12.59 201.926 12.59 268.59 12.59 402.803 121.783 512 256 512c134.213 0 243.41-109.197 243.41-243.41 0-66.664-27.754-131.033-76.148-176.598z" fill="currentColor"/><path d="M256 268.59c23.178 0 41.967-15.033 41.967-33.574V33.574C297.967 15.033 279.178 0 256 0c-23.178 0-41.967 15.033-41.967 33.574v201.443c0 18.54 18.789 33.573 41.967 33.573z" fill="currentColor"/></svg>