<svg class="svg-icon" viewBox="0 0 800 800" fill="none" xmlns="http://www.w3.org/2000/svg"><path fill-rule="evenodd" clip-rule="evenodd" d="M400 800c220.914 0 400-179.086 400-400S620.914 0 400 0 0 179.086 0 400s179.086 400 400 400Zm-84.219-303.032v13.935h137.074v-13.935c0-15.484 2.42-28.645 7.26-39.484 4.84-11.032 12.004-20.807 21.49-29.323 9.487-8.709 21.201-17.129 35.14-25.258 18.974-11.032 35.527-23.226 49.661-36.58 14.326-13.549 25.459-29.129 33.397-46.742 8.131-17.807 12.197-38.42 12.197-61.839 0-36.387-9.39-66.677-28.17-90.871-18.78-24.387-44.433-42.581-76.959-54.581C474.345 100.097 437.366 94 395.934 94c-37.56 0-72.022 6.29-103.386 18.871-31.364 12.387-56.533 31.935-75.507 58.645-18.973 26.516-28.654 61.065-29.041 103.645h148.69c0-11.226 2.614-21.096 7.842-29.613 5.421-8.516 12.487-15.193 21.2-20.032 8.905-4.839 18.586-7.258 29.041-7.258 9.68 0 18.489 2.032 26.427 6.097 7.938 4.064 14.23 9.774 18.877 17.129 4.646 7.355 6.97 15.871 6.97 25.548 0 10.839-2.905 20.516-8.713 29.033-5.614 8.516-13.359 16.548-23.233 24.096-9.68 7.549-20.716 15.387-33.106 23.516-14.327 9.291-26.428 19.742-36.302 31.355-9.874 11.42-17.328 26.613-22.361 45.581-5.034 18.968-7.551 44.419-7.551 76.355Zm13.068 185.516C344.919 698.161 364.183 706 386.641 706c14.327 0 27.589-3.581 39.786-10.742 12.198-7.355 22.072-17.129 29.622-29.322 7.745-12.388 11.714-26.13 11.907-41.226-.193-22.065-8.519-40.936-24.975-56.613-16.263-15.678-35.043-23.516-56.34-23.516-22.458 0-41.722 7.838-57.792 23.516-15.875 15.677-23.717 34.548-23.523 56.613-.194 22.645 7.648 41.903 23.523 57.774Z" fill="currentColor"/></svg>