<svg fill="currentColor" class="svg-icon" viewBox="0 0 16 16" xmlns="http://www.w3.org/2000/svg"><path data-name="Path 184" d="M11.5 13a.5.5 0 0 0-.5.5V15H1V3h2v.5a.5.5 0 0 0 .5.5h5a.5.5 0 0 0 .5-.5V3h2v.5a.5.5 0 0 0 1 0v-1a.5.5 0 0 0-.5-.5H9v-.5A1.5 1.5 0 0 0 7.5 0h-3A1.5 1.5 0 0 0 3 1.5V2H.5a.5.5 0 0 0-.5.5v13a.5.5 0 0 0 .5.5h11a.5.5 0 0 0 .5-.5v-2a.5.5 0 0 0-.5-.5ZM4 1.5a.5.5 0 0 1 .5-.5h3a.5.5 0 0 1 .5.5V3H4Zm11.854 4.646-2-2a.5.5 0 0 0-.708 0l-6 6A.5.5 0 0 0 7 10.5v2a.5.5 0 0 0 .5.5h2a.5.5 0 0 0 .354-.146l6-6a.5.5 0 0 0 0-.708ZM8 12v-1.293l5.5-5.5L14.793 6.5l-5.5 5.5Zm-2 .5a.5.5 0 0 1-.5.5h-2a.5.5 0 0 1 0-1h2a.5.5 0 0 1 .5.5Zm0-3a.5.5 0 0 1-.5.5h-2a.5.5 0 0 1 0-1h2a.5.5 0 0 1 .5.5ZM8.5 7h-5a.5.5 0 0 1 0-1h5a.5.5 0 0 1 0 1Z"/></svg>