<svg class="svg-icon" xmlns="http://www.w3.org/2000/svg" viewBox="0 0 512 512" xml:space="preserve"><style/><path d="M35.558.014v68.062c225.154 0 408.38 183.16 408.38 408.379H512C512 213.724 298.289.014 35.558.014z"/><path d="M35.558 136.139v68.07c150.15 0 272.257 122.09 272.257 272.246h68.062c-.001-187.66-152.667-340.316-340.319-340.316z"/><path d="M35.558 272.26v68.07c75.089 0 136.133 61.047 136.133 136.125h68.062c0-112.656-91.605-204.195-204.195-204.195zM49.18 413.646c-27.16 0-49.18 22-49.18 49.168s22.02 49.172 49.18 49.172c27.159 0 49.179-22.004 49.179-49.172s-22.02-49.168-49.179-49.168z"/></svg>