<svg fill="currentColor" class="svg-icon" viewBox="-7 0 32 32" xmlns="http://www.w3.org/2000/svg"><path d="M1.125 10.156H17c.594 0 1.125.531 1.125 1.125v2.625A1.14 1.14 0 0 1 17 15.031H1.125A1.12 1.12 0 0 1 0 13.906v-2.625c0-.594.5-1.125 1.125-1.125zm15.625 2.688v-.5a.403.403 0 0 0-.375-.375h-2a.38.38 0 0 0-.375.375v.5a.36.36 0 0 0 .375.375h2a.38.38 0 0 0 .375-.375zM1.125 15.906H17c.594 0 1.125.5 1.125 1.125v2.625A1.14 1.14 0 0 1 17 20.781H1.125A1.12 1.12 0 0 1 0 19.656v-2.625c0-.625.5-1.125 1.125-1.125zm15.625 2.688v-.5a.403.403 0 0 0-.375-.375h-2a.38.38 0 0 0-.375.375v.5a.36.36 0 0 0 .375.375h2a.38.38 0 0 0 .375-.375zM1.125 21.656H17c.594 0 1.125.5 1.125 1.125v2.625A1.14 1.14 0 0 1 17 26.531H1.125A1.12 1.12 0 0 1 0 25.406v-2.625c0-.625.5-1.125 1.125-1.125zm15.625 2.688v-.5a.38.38 0 0 0-.375-.375h-2a.36.36 0 0 0-.375.375v.5a.36.36 0 0 0 .375.375h2a.38.38 0 0 0 .375-.375zM17 9.313H1.125c-.188 0-.375.031-.531.094L2.5 6.813c.375-.5 1.188-.906 1.813-.906h9.5c.594 0 1.406.406 1.781.906l1.938 2.594a1.722 1.722 0 0 0-.531-.094z"/></svg>