<svg fill="currentColor" xmlns="http://www.w3.org/2000/svg" class="svg-icon" viewBox="0 0 512 512" xml:space="preserve"><path d="M493.43 310.244a241.261 241.261 0 0 0 5.563-51.562c0-132.728-107.588-240.317-240.316-240.317a242.453 242.453 0 0 0-41.094 3.518C196.099 8.359 170.686.5 143.427.5 66.465.5 4.075 62.903 4.075 139.865c0 25.725 6.999 49.803 19.163 70.487a240.898 240.898 0 0 0-4.878 48.331c0 132.728 107.589 240.316 240.316 240.316 15.047 0 29.742-1.396 44.014-4.042 19.613 10.555 42.043 16.543 65.871 16.543 76.975 0 139.365-62.391 139.365-139.365 0-22.232-5.227-43.24-14.496-61.891zM381.922 373.52c-11.104 15.745-27.533 28.208-48.816 37.053-21.072 8.758-46.334 13.199-75.091 13.199-34.52 0-63.463-6.063-86.043-18.039-16.144-8.733-29.467-20.535-39.573-35.119-10.205-14.733-15.382-29.33-15.382-43.428 0-8.808 3.381-16.442 10.03-22.681 6.587-6.2 15.021-9.331 25.076-9.331 8.259 0 15.382 2.47 21.171 7.36 5.527 4.69 10.28 11.627 14.085 20.585 4.267 9.756 8.908 17.989 13.811 24.477 4.716 6.238 11.49 11.478 20.148 15.582 8.721 4.13 20.46 6.213 34.907 6.213 19.874 0 36.167-4.242 48.418-12.613 11.963-8.158 17.775-17.965 17.775-29.979 0-9.494-3.043-16.941-9.281-22.793-6.549-6.113-15.156-10.879-25.649-14.147-10.915-3.393-25.749-7.073-44.076-10.916-24.938-5.339-46.135-11.677-62.989-18.851-17.229-7.323-31.126-17.49-41.282-30.216-10.317-12.899-15.544-29.105-15.544-48.156 0-18.152 5.489-34.52 16.318-48.63 10.741-14.022 26.436-24.914 46.646-32.386 19.948-7.373 43.665-11.116 70.5-11.116 21.469 0 40.332 2.482 56.09 7.385 15.83 4.928 29.193 11.59 39.684 19.786 10.568 8.259 18.428 17.092 23.367 26.261 4.99 9.282 7.512 18.489 7.512 27.421 0 8.583-3.307 16.393-9.855 23.18-6.588 6.849-14.885 10.33-24.678 10.33-8.896 0-15.869-2.183-20.697-6.462-4.504-3.967-9.17-10.18-14.348-19.087-6-11.39-13.248-20.36-21.569-26.685-8.072-6.151-21.571-9.27-40.122-9.27-17.229 0-31.226 3.468-41.631 10.28-10.03 6.575-14.896 14.123-14.896 23.042 0 5.477 1.56 10.043 4.791 13.985 3.418 4.167 8.234 7.834 14.322 10.878 6.313 3.181 12.825 5.701 19.337 7.498 6.687 1.859 17.902 4.603 33.259 8.159 19.45 4.167 37.327 8.846 53.134 13.898 15.994 5.127 29.828 11.439 41.096 18.775 11.514 7.498 20.635 17.116 27.096 28.619 6.488 11.527 9.768 25.774 9.768 42.317-.003 19.789-5.653 37.84-16.819 53.622z"/></svg>