<svg class="svg-icon" viewBox="0 0 800 800" fill="none" xmlns="http://www.w3.org/2000/svg"><path d="M627.832 95H172.168C77.246 95 0 173.932 0 270.928v174.268c0 96.998 77.246 175.928 172.168 175.928h288.013l209.375 123.339V615.826C745.288 596.54 800 526.812 800 445.196V270.928C800 173.932 722.754 95 627.832 95ZM184.229 433.209c-20.386 0-38.551-4.444-50.317-10.815l8.594-34.716c8.911 5.42 27.393 11.792 41.724 11.792 14.648 0 20.704-5.102 20.704-13.061 0-7.984-4.785-11.793-22.924-17.847-32.178-10.839-44.604-28.344-44.288-46.826 0-28.979 24.854-50.952 63.38-50.952 18.163 0 34.425 4.126 43.969 8.912l-8.594 33.446c-7.008-3.833-20.386-8.935-33.765-8.935-11.793 0-18.482 4.785-18.482 12.744 0 7.324 6.054 11.158 25.171 17.847 29.615 10.181 42.041 25.17 42.359 48.096-.002 28.978-22.927 50.315-67.531 50.315Zm332.202-3.174h-47.143v-84.717c0-22.631-7.348-35.693-22.948-35.693-11.133 0-19.117 7.641-22.291 16.895-1.27 3.491-1.904 8.594-1.904 12.426v91.089h-47.143v-87.28c0-19.752-7.007-33.13-22.315-33.13-12.401 0-19.751 9.571-22.607 17.53-1.587 3.809-1.904 8.276-1.904 12.109v90.773h-47.143V323.958c0-19.409-.635-35.987-1.27-49.683h40.773l2.222 21.021h.951c6.689-9.863 20.386-24.512 47.143-24.512 20.069 0 35.987 10.182 42.676 26.417h.635c5.737-7.959 12.745-14.332 20.069-18.774 8.619-5.102 18.163-7.641 29.639-7.641 29.931 0 52.563 21.021 52.563 67.505v91.744h-.003Zm79.882 3.174c-20.385 0-38.55-4.444-50.316-10.815l8.594-34.716c8.911 5.42 27.393 11.792 41.724 11.792 14.648 0 20.704-5.102 20.704-13.061 0-7.984-4.786-11.793-22.926-17.847-32.178-10.839-44.604-28.344-44.287-46.826 0-28.979 24.854-50.952 63.379-50.952 18.164 0 34.4 4.126 43.969 8.912l-8.594 33.446c-7.007-3.833-20.385-8.935-33.765-8.935-11.792 0-18.482 4.785-18.482 12.744 0 7.324 6.054 11.158 25.171 17.847 29.615 10.181 42.041 25.17 42.359 48.096 0 28.978-22.925 50.315-67.53 50.315Z" fill="currentColor"/></svg>