<svg xmlns="http://www.w3.org/2000/svg" fill="currentColor" class="svg-icon" viewBox="0 0 48 48"><path d="M24.0012 15.0007C19.0415 15.0007 15.0007 19.0415 15.0007 24.0012C15.0007 28.9608 19.0415 33.0016 24.0012 33.0016C28.9608 33.0016 33.0016 28.9608 33.0016 24.0012C33.0016 19.0415 28.9608 15.0007 24.0012 15.0007ZM47.1023 22.548L38.2237 18.1134L41.3645 8.70042C41.7864 7.42536 40.577 6.21593 39.3113 6.6472L29.8983 9.78798L25.4544 0.900044C24.8543 -0.300015 23.148 -0.300015 22.548 0.900044L18.1134 9.7786L8.69105 6.63782C7.41598 6.21593 6.20655 7.42536 6.63782 8.69105L9.7786 18.104L0.900044 22.548C-0.300015 23.148 -0.300015 24.8543 0.900044 25.4544L9.7786 29.889L6.63782 39.3113C6.21593 40.5863 7.42536 41.7958 8.69105 41.3645L18.104 38.2237L22.5386 47.1023C23.1386 48.3023 24.845 48.3023 25.445 47.1023L29.8796 38.2237L39.2925 41.3645C40.5676 41.7864 41.777 40.577 41.3458 39.3113L38.205 29.8983L47.0835 25.4637C48.3023 24.8543 48.3023 23.148 47.1023 22.548ZM32.486 32.486C27.8076 37.1643 20.1947 37.1643 15.5164 32.486C10.838 27.8076 10.838 20.1947 15.5164 15.5164C20.1947 10.838 27.8076 10.838 32.486 15.5164C37.1643 20.1947 37.1643 27.8076 32.486 32.486Z"/></svg>
