<svg class="svg-icon" viewBox="0 0 24 24" xmlns="http://www.w3.org/2000/svg"><path d="M22 6.5v2.2c0 .291-.117.57-.325.777a1.117 1.117 0 0 1-.786.322 8.958 8.958 0 0 1-4.445-1.188v7.238c0 1.27-.34 2.517-.988 3.613a7.188 7.188 0 0 1-2.698 2.623 7.28 7.28 0 0 1-7.298-.132 7.18 7.18 0 0 1-2.6-2.718 7.09 7.09 0 0 1 .268-7.221A7.196 7.196 0 0 1 5.922 9.49a1.12 1.12 0 0 1 1.497.442c.093.168.14.357.137.548v2.772a1.007 1.007 0 0 1-.312.682 2.714 2.714 0 0 0-.534 3.096c.243.508.638.93 1.13 1.208.494.279 1.061.4 1.627.348a2.908 2.908 0 0 0 1.828-.97A2.854 2.854 0 0 0 12 15.683V2.1c0-.292.117-.571.325-.778.209-.206.491-.322.786-.322h2.345c.264-.004.522.086.725.254.204.167.34.4.386.659.21.982.753 1.864 1.54 2.498a4.472 4.472 0 0 0 2.782.989c.295 0 .577.116.786.322.208.206.325.486.325.778Z" fill="currentColor"/></svg>