<svg class="svg-icon" viewBox="0 0 168 168" xmlns="http://www.w3.org/2000/svg"><path fill-rule="evenodd" clip-rule="evenodd" d="m84 64.908 57.954-57.954c5.272-5.272 13.82-5.272 19.092 0 5.272 5.272 5.272 13.82 0 19.092L103.092 84l57.954 57.954c5.272 5.272 5.272 13.82 0 19.092-5.272 5.272-13.82 5.272-19.092 0L84 103.092l-57.954 57.954c-5.272 5.272-13.82 5.272-19.092 0-5.272-5.272-5.272-13.82 0-19.092L64.908 84 6.954 26.046c-5.272-5.272-5.272-13.82 0-19.092 5.272-5.272 13.82-5.272 19.092 0L84 64.908Z" fill="currentColor"/></svg>