<svg class="svg-icon" viewBox="0 0 32 32" xmlns="http://www.w3.org/2000/svg"><path d="M0 15.656v-.031C.281 12 1.594 9.281 3.875 7.562c2.25-1.75 4.688-2.594 7.344-2.594 2.781-.031 5.375.906 7.688 2.781 2.344 1.844 3.5 4.594 3.5 8.156v.219c0 3.594-1.156 6.281-3.5 8.125-2.344 1.875-4.938 2.813-7.719 2.813h-.125c-2.719-.031-5.219-.969-7.531-2.844-2.313-1.844-3.5-4.688-3.531-8.563zm10.531-4.906V5.812h-.75c-.156.188-.281.406-.406.594S9.125 6.781 9 7a6.796 6.796 0 0 0-.375.625 3.595 3.595 0 0 0-.313.594 8.406 8.406 0 0 0-.469.906 6.164 6.164 0 0 0-.375.813c.188.125.406.281.656.375.281.094.563.188.844.25.313.063.594.094.844.125.281.031.531.063.719.063zm1.313-4.937v4.906c.156 0 .344.031.531 0 .188 0 .406-.031.594-.063.344-.063.75-.156 1.063-.25.344-.125.656-.281.875-.469-.375-.906-.781-1.625-1.188-2.313s-.875-1.281-1.375-1.781v-.031h-.5zm-3.375.281v-.031c-.219.094-.438.25-.688.344-.219.094-.5.219-.719.344-.438.219-.875.469-1.313.75-.406.281-.813.594-1.156.906.125.125.281.25.406.344s.281.219.438.344c.125.063.281.156.438.281.156.094.344.219.531.344.25-.563.5-1.156.813-1.688.313-.563.656-1.094 1-1.563a.66.66 0 0 1 .125-.188c.031-.031.063-.125.125-.188zm9.562 2.312v-.031c-.781-.594-1.469-1.094-2.156-1.406s-1.375-.625-2-.875c.5.5.938 1.125 1.219 1.719.313.625.625 1.281.875 1.906.125-.063.281-.125.469-.25.156-.094.375-.188.563-.281.188-.125.344-.25.531-.375.188-.156.375-.281.5-.406zm-.531 6.969h3.594c0-1.156-.25-2.25-.719-3.375a8.173 8.173 0 0 0-1.844-2.781v-.031c-.156.25-.375.469-.594.625-.25.156-.469.281-.719.406-.156.094-.313.219-.469.281-.156.094-.375.156-.531.25.125.25.25.531.375.781.094.281.25.594.313.875.188.5.313 1.031.438 1.563.094.469.156.969.156 1.406zM6.188 10.75v-.031c-.25-.125-.531-.219-.75-.344-.219-.156-.438-.313-.625-.438-.188-.094-.375-.219-.531-.344s-.281-.25-.406-.375c-.813.781-1.406 1.656-1.781 2.688a12.894 12.894 0 0 0-.813 3.438h3.844c0-.875.125-1.719.344-2.563a8.35 8.35 0 0 1 .719-2.031zm4.343 4.594V11.75c-.25.031-.563.031-.844 0a4.224 4.224 0 0 1-.906-.219c-.25-.063-.563-.125-.813-.219a2.926 2.926 0 0 1-.781-.313 5.006 5.006 0 0 0-.469 1.094c-.156.375-.25.781-.344 1.156-.063.375-.094.781-.125 1.125s-.063.688-.063.969h4.344zm1.313-3.531v3.531h4.625c0-.188 0-.406-.031-.656-.063-.219-.094-.5-.125-.75-.094-.375-.188-.781-.313-1.156-.125-.344-.25-.688-.406-.969-.063-.156-.125-.344-.188-.469-.094-.156-.188-.25-.25-.344-.344.25-.813.406-1.375.531-.531.125-1.156.25-1.719.281h-.219zm-6.719 4.562H1.281c0 .531.094 1.125.25 1.844.156.75.469 1.438.813 2.188.156.375.344.75.531 1.125.219.344.469.719.719 1.063.188-.125.375-.219.531-.313.188-.094.406-.219.594-.313.219-.094.438-.188.688-.313.219-.094.5-.219.781-.344-.25-.781-.531-1.531-.719-2.375a9.515 9.515 0 0 1-.344-2.531v-.031zm5.406 3.656v-3.656H6.187c0 .25.031.625.094 1 .031.375.125.781.188 1.188.125.438.219.875.344 1.25s.25.688.375.969a12.9 12.9 0 0 1 1.5-.469c.406-.125.781-.219 1.156-.25h.344c.125-.031.25-.031.344-.031zm1.313-3.656V20c.219.031.469.063.719.094.281.031.625.094.906.156l.469.094c.156.063.344.094.5.125.188.063.375.094.563.156.156.063.313.094.438.156.406-1.031.656-1.875.813-2.594a8.103 8.103 0 0 0 .219-1.781v-.031h-4.625zm9.25.031v-.031H17.5v.188a17.383 17.383 0 0 1-.25 2c-.125.688-.406 1.5-.781 2.5.5.25.969.5 1.344.75s.719.531.969.781c.531-.531 1-1.25 1.406-2.188.406-.906.688-1.844.844-2.844.031-.188.031-.375.063-.563v-.594zm-10.563 9.5v-4.875c-.781.125-1.438.281-1.938.406s-.875.25-1.125.375c.188.469.375.875.563 1.25.188.344.406.719.594 1.031.063.125.188.25.281.406.094.125.156.281.25.406.094.156.188.344.281.531.125.156.219.344.344.469h.75zm1.313 0h.719c.281-.219.563-.531.781-.875.25-.344.531-.75.719-1.094.219-.406.438-.781.625-1.156s.344-.719.469-.969c-.344-.125-.813-.25-1.281-.375s-1.125-.25-2.031-.375v4.844zm6.187-2.562v-.031c-.063-.094-.188-.219-.281-.313s-.25-.219-.406-.313c-.125-.094-.281-.188-.469-.281s-.438-.219-.656-.344c-.125.25-.344.688-.656 1.281-.281.594-.781 1.313-1.406 2.094a5.818 5.818 0 0 0 2.094-.781 6.924 6.924 0 0 0 1.781-1.313zm-11.625-1v-.031c-.219.125-.563.281-.906.438a6.746 6.746 0 0 0-1.156.594c.219.188.438.375.625.5.188.156.406.281.594.406.344.219.75.438 1.156.625s.906.375 1.531.563c-.219-.25-.375-.563-.531-.813s-.344-.5-.5-.75-.281-.531-.406-.781c-.156-.25-.281-.5-.406-.75z"/></svg>