<svg version="1.1" id="_x32_" xmlns="http://www.w3.org/2000/svg" viewBox="0 0 512 512" xml:space="preserve"><style>.st0{fill:#000}</style><path d="M439.713 187.302c-9.487 0-17.172 7.696-17.172 17.18 0 9.483 7.686 17.166 17.172 17.166 9.484 0 17.173-7.682 17.173-17.166s-7.689-17.18-17.173-17.18zm-15.576 40.738h31.152v81.47h-31.152zm-114.754-31.95v113.421h29.985v-34.605h57.662v-27.694h-57.662v-19.97h65.864V196.09h-65.864z"/><path d="M431.85 143.378H80.15c-44.266 0-80.15 35.88-80.15 80.146v64.946c0 44.265 35.884 80.153 80.15 80.153h351.7c44.266 0 80.15-35.888 80.15-80.153v-64.946c0-44.266-35.884-80.146-80.15-80.146zM154.217 310.111h-28.232l-12.741-55.257-12.741 55.257H72.27L44.269 196.09h32.875l10.374 50.632 12.174-50.632h27.1l12.178 50.632 10.371-50.632h32.876l-28 114.021zm71.83-.6h-31.153v-81.47h31.153v81.47zm-15.577-87.863c-9.484 0-17.173-7.682-17.173-17.166s7.689-17.18 17.173-17.18c9.487 0 17.173 7.696 17.173 17.18 0 9.483-7.686 17.166-17.173 17.166zm283.958 66.822c0 34.509-28.075 62.578-62.578 62.578H234.834s34.345-23.962 34.345-69.094v-52.173c0-38.016 30.818-68.834 68.831-68.834h93.839c34.503 0 62.578 28.076 62.578 62.578v64.945z"/></svg>