<svg class="svg-icon" viewBox="0 0 24 24" fill="none" xmlns="http://www.w3.org/2000/svg">
<path fill-rule="evenodd" clip-rule="evenodd" d="M5.8022 11.3255L10.0837 13.4134C10.2647 13.5016 10.4142 13.6435 10.5119 13.8196C10.6095 13.9957 10.6507 14.1977 10.6296 14.398C10.6086 14.5983 10.5265 14.7873 10.3944 14.9393C10.2623 15.0913 10.0866 15.199 9.89115 15.2478L5.26933 16.4002C5.13348 16.4339 4.99202 16.4381 4.85439 16.4127C4.71676 16.3874 4.58613 16.3329 4.47124 16.253C4.35635 16.173 4.25984 16.0695 4.18815 15.9493C4.11647 15.8291 4.07126 15.695 4.05555 15.556C3.91327 14.3212 4.04513 13.0703 4.44175 11.8924C4.48648 11.7603 4.55885 11.6393 4.65404 11.5374C4.74922 11.4354 4.86504 11.355 4.99377 11.3013C5.1225 11.2477 5.26119 11.2221 5.40058 11.2262C5.53998 11.2304 5.6769 11.2642 5.8022 11.3255Z" fill="currentColor"/>
<path fill-rule="evenodd" clip-rule="evenodd" d="M7.51639 20.1391L10.7031 16.5995C10.8378 16.4498 11.0154 16.3453 11.2116 16.3C11.4079 16.2546 11.6133 16.2708 11.8 16.3462C11.9868 16.4217 12.1458 16.5528 12.2555 16.7217C12.3652 16.8906 12.4203 17.0891 12.4133 17.2904L12.247 22.0521C12.2421 22.1919 12.2073 22.3291 12.1451 22.4544C12.0829 22.5797 11.9946 22.6903 11.8862 22.7787C11.7778 22.8672 11.6518 22.9314 11.5165 22.9673C11.3813 23.0031 11.24 23.0096 11.102 22.9864C9.87748 22.78 8.71283 22.3087 7.68946 21.6053C7.57433 21.5261 7.47742 21.4232 7.40523 21.3036C7.33304 21.1839 7.28723 21.0502 7.27084 20.9114C7.25446 20.7726 7.26789 20.6319 7.31024 20.4987C7.35258 20.3655 7.42286 20.2429 7.51639 20.1391Z" fill="currentColor"/>
<path fill-rule="evenodd" clip-rule="evenodd" d="M15.0721 15.4289L19.6017 16.9009C19.7345 16.9441 19.8567 17.0151 19.96 17.1093C20.0632 17.2034 20.1452 17.3185 20.2004 17.4469C20.2556 17.5753 20.2828 17.7139 20.2801 17.8536C20.2775 17.9934 20.245 18.1309 20.1849 18.257C19.6503 19.3779 18.8774 20.3685 17.9201 21.1595C17.8122 21.2486 17.6865 21.3136 17.5515 21.3502C17.4165 21.3869 17.2752 21.3942 17.1371 21.3718C16.999 21.3494 16.8672 21.2978 16.7507 21.2204C16.6341 21.143 16.5355 21.0416 16.4613 20.9229L13.9365 16.8824C13.8297 16.7116 13.7782 16.5121 13.7887 16.3109C13.7993 16.1098 13.8715 15.9168 13.9955 15.7581C14.1195 15.5994 14.2893 15.4826 14.4819 15.4238C14.6745 15.3649 14.8806 15.3667 15.0721 15.4289Z" fill="currentColor"/>
<path fill-rule="evenodd" clip-rule="evenodd" d="M19.6783 12.5393L15.0996 13.8521C14.906 13.9076 14.7001 13.9022 14.5096 13.8366C14.3192 13.771 14.1536 13.6484 14.0352 13.4855C13.9169 13.3225 13.8515 13.1271 13.848 12.9257C13.8445 12.7244 13.903 12.5268 14.0157 12.3598L16.6795 8.41097C16.7574 8.29536 16.8591 8.19768 16.9777 8.12443C17.0963 8.05117 17.2291 8.00403 17.3674 7.98612C17.5056 7.96822 17.6461 7.97998 17.7794 8.02061C17.9128 8.06124 18.036 8.12981 18.1407 8.22176C19.0733 9.04339 19.813 10.0606 20.3073 11.201C20.3633 11.3293 20.3912 11.4681 20.3893 11.608C20.3873 11.748 20.3555 11.886 20.296 12.0127C20.2364 12.1393 20.1505 12.2519 20.044 12.3427C19.9375 12.4335 19.8128 12.5006 19.6783 12.5393Z" fill="currentColor"/>
<path fill-rule="evenodd" clip-rule="evenodd" d="M8.97951 1.42915C8.1701 1.64564 7.38224 1.93589 6.62583 2.29624C6.50384 2.35468 6.39525 2.43772 6.3069 2.54015C6.21854 2.64258 6.15233 2.76217 6.11242 2.89142C6.07251 3.02067 6.05976 3.15677 6.07498 3.29118C6.0902 3.42559 6.13306 3.5554 6.20086 3.67245L10.676 11.4236C10.784 11.6107 10.9508 11.7569 11.1504 11.8396C11.35 11.9223 11.5713 11.9368 11.78 11.8809C11.9887 11.825 12.1731 11.7018 12.3046 11.5304C12.4361 11.359 12.5074 11.149 12.5074 10.9329V1.98227C12.5076 1.84701 12.4799 1.71316 12.4258 1.58914C12.3718 1.46513 12.2927 1.35363 12.1935 1.26165C12.0944 1.16967 11.9772 1.0992 11.8495 1.05467C11.7218 1.01014 11.5862 0.992513 11.4513 1.00289C10.6161 1.06916 9.7887 1.21184 8.97951 1.42915Z" fill="currentColor"/>
</svg>
