<svg class="svg-icon" viewBox="0 0 24 24" fill="none" xmlns="http://www.w3.org/2000/svg">
<path d="M14.0211 12.3635L14.2229 12.4997C14.139 12.6241 14.0953 12.7713 14.098 12.9214C14.1006 13.0715 14.1493 13.2171 14.2375 13.3386C14.3257 13.46 14.4491 13.5513 14.591 13.6002C14.733 13.6491 14.8865 13.6531 15.0307 13.6118C15.0307 13.6118 15.0308 13.6118 15.0308 13.6118L19.609 12.2991L14.0211 12.3635ZM14.0211 12.3635L14.2229 12.4997L16.8868 8.55078L16.8869 8.55067M14.0211 12.3635L16.8869 8.55067M16.8869 8.55067C16.9449 8.46452 17.0207 8.39172 17.1091 8.33713C17.1974 8.28253 17.2965 8.2474 17.3995 8.23405C17.5025 8.22071 17.6072 8.22948 17.7066 8.25976C17.8059 8.29001 17.8976 8.34106 17.9756 8.4095C18.8805 9.20679 19.5983 10.1939 20.0779 11.3004L20.0782 11.301M16.8869 8.55067L20.0782 11.301M20.0782 11.301C20.1199 11.3967 20.1408 11.5002 20.1393 11.6045M20.0782 11.301L20.1393 11.6045M20.1393 11.6045C20.1379 11.7089 20.1141 11.8118 20.0697 11.9063M20.1393 11.6045L20.0697 11.9063M20.0697 11.9063C20.0253 12.0008 19.9612 12.0847 19.8818 12.1525M20.0697 11.9063L19.8818 12.1525M19.8818 12.1525C19.8024 12.2201 19.7096 12.2701 19.6094 12.299L19.8818 12.1525ZM5.69243 11.5501L5.69261 11.5502L9.97407 13.6381L9.9741 13.6381C10.109 13.7039 10.2204 13.8096 10.2932 13.9408C10.366 14.0721 10.3967 14.2226 10.381 14.3719C10.3653 14.5212 10.3041 14.662 10.2057 14.7753C10.1072 14.8886 9.97627 14.9689 9.83063 15.0052L5.20922 16.1576C5.20912 16.1576 5.20903 16.1576 5.20894 16.1576C5.10771 16.1827 5.0023 16.1858 4.89975 16.1669C4.7971 16.148 4.69968 16.1073 4.614 16.0477C4.52831 15.9881 4.45633 15.9109 4.40287 15.8213C4.3494 15.7316 4.31568 15.6316 4.30397 15.5279L4.30391 15.5273C4.16584 14.3293 4.29377 13.1155 4.67857 11.9725C4.71191 11.8741 4.76583 11.7839 4.83675 11.708C4.90769 11.632 4.994 11.5721 5.08994 11.5321C5.18588 11.4921 5.28924 11.473 5.39312 11.4761C5.49701 11.4792 5.59905 11.5044 5.69243 11.5501ZM7.70216 20.3064L7.70219 20.3064L10.8888 16.7668C10.9893 16.6553 11.1216 16.5773 11.2679 16.5435C11.4141 16.5098 11.5672 16.5218 11.7064 16.578C11.8456 16.6343 11.9641 16.732 12.0459 16.8578C12.1276 16.9837 12.1687 17.1317 12.1635 17.2817C12.1635 17.2817 12.1635 17.2817 12.1635 17.2817L11.9972 22.0433C11.9935 22.1475 11.9676 22.2498 11.9212 22.3432C11.8748 22.4366 11.809 22.5191 11.7282 22.585C11.6473 22.6509 11.5534 22.6989 11.4525 22.7256C11.3517 22.7523 11.2463 22.7572 11.1434 22.7399C9.95488 22.5395 8.8244 22.082 7.83106 21.3993C7.74528 21.3402 7.67309 21.2636 7.6193 21.1744C7.56549 21.0852 7.53133 20.9856 7.51912 20.8821C7.50691 20.7786 7.51692 20.6738 7.54848 20.5745C7.58005 20.4752 7.63244 20.3838 7.70216 20.3064ZM19.5244 17.1387L19.5244 17.1387C19.6235 17.1709 19.7145 17.2238 19.7915 17.294C19.8685 17.3642 19.9296 17.45 19.9707 17.5457C20.0119 17.6414 20.0321 17.7447 20.0302 17.8489C20.0282 17.953 20.004 18.0554 19.9593 18.1494C19.4404 19.2374 18.6901 20.199 17.7608 20.9668C17.6804 21.0332 17.5868 21.0817 17.4861 21.109C17.3854 21.1363 17.2801 21.1417 17.1771 21.125C17.0741 21.1083 16.9759 21.0698 16.889 21.0121C16.8021 20.9544 16.7286 20.8788 16.6732 20.7904L14.1485 16.7499C14.069 16.6226 14.0305 16.4739 14.0384 16.324C14.0462 16.1741 14.1 16.0303 14.1925 15.912C14.2849 15.7937 14.4115 15.7067 14.555 15.6628C14.6985 15.6189 14.8521 15.6203 14.9949 15.6667C14.9949 15.6667 14.9949 15.6667 14.9949 15.6667L19.5244 17.1387ZM9.0441 1.67066L9.04435 1.67059C9.83868 1.45727 10.6509 1.3172 11.4708 1.25213C11.5712 1.24445 11.6721 1.25759 11.7672 1.29074C11.8624 1.32392 11.9497 1.37643 12.0236 1.44496C12.0975 1.5135 12.1564 1.59658 12.1966 1.68898C12.2369 1.78139 12.2576 1.88112 12.2574 1.98191V1.98227L12.2574 10.9329C12.2574 10.9329 12.2574 10.9329 12.2574 10.9329C12.2574 11.0939 12.2043 11.2504 12.1063 11.3782C12.0082 11.5059 11.8708 11.5977 11.7153 11.6394C11.5597 11.6811 11.3948 11.6702 11.2461 11.6086C11.0973 11.547 10.973 11.4381 10.8925 11.2986L6.41737 3.54745L6.41719 3.54715C6.36667 3.45993 6.33473 3.3632 6.32339 3.26305C6.31205 3.1629 6.32155 3.06149 6.35129 2.96518C6.38103 2.86888 6.43037 2.77976 6.4962 2.70345C6.56199 2.62718 6.64282 2.56534 6.73364 2.5218C7.47617 2.16808 8.24956 1.88318 9.0441 1.67066Z" stroke="currentColor" stroke-width="1"/>
</svg>
