<svg xmlns="http://www.w3.org/2000/svg" class="svg-icon" viewBox="0 0 512 512" xml:space="preserve"><path d="M34.354.5h45.959l29.604 91.096h2.863L141.013.5h46.353l-53.107 133.338v94.589H88.641V138.08L34.354.5zm157.839 98.157c0-13.374 5.495-24.003 16.493-31.938 10.984-7.934 25.749-11.901 44.3-11.901 16.893 0 30.728 4.192 41.506 12.55 10.805 8.358 16.193 19.112 16.193 32.287v89.2c0 14.771-5.301 26.373-15.868 34.782-10.579 8.408-25.151 12.625-43.684 12.625-17.859 0-32.143-4.342-42.866-13.024-10.709-8.683-16.074-20.36-16.074-35.057V98.657zm42.012 92.767c0 4.766 1.44 8.409 4.354 11.029 2.907 2.595 7.055 3.867 12.451 3.867 5.532 0 9.93-1.297 13.18-3.942 3.256-2.669 4.891-6.313 4.891-10.954V97.359c0-3.768-1.672-6.812-4.99-9.132-3.318-2.321-7.679-3.494-13.081-3.494-4.972 0-9.027 1.173-12.133 3.494-3.119 2.32-4.672 5.364-4.672 9.132v94.065zM459.992 57.588v172.711h-40.883v-19.063c-7.547 7.037-15.381 12.375-23.541 16.069-8.146 3.643-16.068 5.489-23.729 5.489-9.455 0-16.592-2.57-21.383-7.71-4.791-5.141-7.186-12.85-7.186-23.13V57.588h40.895v132.39c0 4.117.861 7.061 2.57 8.907 1.723 1.822 4.492 2.745 8.322 2.745 3.018 0 6.824-1.223 11.4-3.643 4.604-2.42 8.82-5.514 12.65-9.282V57.588h40.885zM421.68 363.262c-2.008-2.221-5.203-3.368-9.594-3.368-4.59 0-7.883 1.147-9.879 3.368-1.996 2.245-2.994 5.963-2.994 11.153v10.754h25.473v-10.754c0-5.19-.998-8.908-3.006-11.153zm-120.825 80.966c2.195.898 4.516 1.322 6.961 1.322 3.543 0 6.113-.849 7.785-2.595 1.67-1.722 2.494-4.591 2.494-8.533v-62.178c0-4.191-1.023-7.36-3.068-9.531-2.059-2.171-5.064-3.244-8.957-3.244-2.059 0-4.092.399-6.102 1.198-2.008.823-3.991 2.096-5.95 3.792v75.402c2.346 2.046 4.628 3.493 6.837 4.367zm189.641-131.641c0-29.941-30.754-54.219-68.654-54.219-54.068-1.822-109.396-2.62-165.842-2.521-56.427-.1-111.756.698-165.843 2.521-37.881 0-68.633 24.277-68.633 54.219-2.277 23.678-3.263 47.381-3.175 71.085-.087 23.703.898 47.406 3.175 71.11 0 29.916 30.752 54.192 68.633 54.192 54.087 1.797 109.416 2.596 165.843 2.521 56.446.075 111.774-.724 165.842-2.521 37.9 0 68.654-24.276 68.654-54.192 2.27-23.704 3.254-47.407 3.154-71.11.1-23.704-.884-47.407-3.154-71.085zM121.251 463.465v1.797H88.778V321.644H55.182v-26.147h99.672v26.147h-33.603v141.821zM236.768 341.33v123.932h-28.831v-13.698c-5.327 5.064-10.848 8.882-16.592 11.527-5.757 2.619-11.334 3.942-16.748 3.942-6.662 0-11.684-1.847-15.065-5.515-3.387-3.692-5.078-9.231-5.078-16.617V339.558h28.844v94.988c0 2.92.599 5.065 1.802 6.363 1.217 1.322 3.175 1.971 5.876 1.971 2.127 0 4.803-.873 8.047-2.595 3.231-1.747 6.2-3.967 8.914-6.662v-94.065h28.831v1.772zm111.007 29.517v68.74c0 8.808-2.258 15.544-6.773 20.235-4.518 4.641-11.055 6.986-19.588 6.986-5.639 0-10.652-.898-15.07-2.695-4.428-1.821-8.532-4.616-12.325-8.384v9.532h-29.105V295.496h29.105v54.068c3.893-3.793 8.009-6.662 12.376-8.608 4.379-1.971 8.809-2.969 13.273-2.969 9.107 0 16.094 2.645 20.896 7.935 4.803 5.289 7.211 12.999 7.211 23.13v1.795zm106.59 3.793v31.564h-55.152v21.581c0 6.513.947 11.029 2.844 13.549 1.908 2.521 5.152 3.793 9.742 3.793 4.779 0 8.135-1.073 10.043-3.219 1.896-2.121 2.844-6.837 2.844-14.123v-8.607h29.68v11.102c0 12.7-3.605 22.257-10.84 28.694-7.225 6.438-18.016 9.631-32.375 9.631-12.912 0-23.066-3.418-30.49-10.229-7.41-6.812-11.127-16.193-11.127-28.096v-57.411c0-10.754 4.078-19.512 12.213-26.299 8.146-6.762 18.689-10.155 31.588-10.155 13.199 0 23.328 3.144 30.416 9.406 7.061 6.264 10.615 15.296 10.615 27.048v1.771z"/></svg>