<svg class="svg-icon" viewBox="0 0 24 24" fill="none" xmlns="http://www.w3.org/2000/svg">
<path d="M11.9886 22.8161C17.9798 22.8161 22.8366 17.9593 22.8366 11.9681C22.8366 5.97693 17.9798 1.12012 11.9886 1.12012C5.99744 1.12012 1.14062 5.97693 1.14062 11.9681C1.14062 17.9593 5.99744 22.8161 11.9886 22.8161Z" stroke="currentColor" stroke-width="1.5"/>
<path d="M11.995 17.3891C10.9406 17.3891 9.89741 17.1859 8.92141 16.7891L8.47021 16.5987V15.8147L13.9326 7.7171H8.50221V6.5459H15.499V7.4915L9.84141 15.8803C10.5374 16.1059 11.2638 16.2195 11.995 16.2195C13.2142 16.2195 14.4142 15.9091 15.4814 15.3203L16.0494 16.3459C14.8094 17.0323 13.4142 17.3923 11.9966 17.3923L11.995 17.3891Z" fill="currentColor"/>
<path d="M8.74249 12.5504C9.19138 12.5504 9.55529 12.1865 9.55529 11.7376C9.55529 11.2887 9.19138 10.9248 8.74249 10.9248C8.29359 10.9248 7.92969 11.2887 7.92969 11.7376C7.92969 12.1865 8.29359 12.5504 8.74249 12.5504Z" fill="currentColor"/>
<path d="M15.2386 12.5504C15.6875 12.5504 16.0514 12.1865 16.0514 11.7376C16.0514 11.2887 15.6875 10.9248 15.2386 10.9248C14.7897 10.9248 14.4258 11.2887 14.4258 11.7376C14.4258 12.1865 14.7897 12.5504 15.2386 12.5504Z" fill="currentColor"/>
</svg>
